/* XPM */
static char * minfcs_xpm[] = {
"15 15 5 1",
" 	c #FFFFFF",
".	c #E3DFD5",
"+	c #CAC6BC",
"@	c #5E5E5E",
"#	c #A5A299",
"               ",
"...............",
"...............",
"...............",
"...............",
"...............",
"...............",
"+++++++++++++++",
"+++++++++++++++",
"++++@@@@@++++++",
"+++++++++++++++",
"+++++++++++++++",
"+++++++++++++++",
"+++++++++++++++",
"###############"};
