/* XPM */
static char * shadefcs_xpm[] = {
"15 15 5 1",
" 	c #FFFFFF",
".	c #E3DFD5",
"+	c #5E5E5E",
"@	c #CAC6BC",
"#	c #A5A299",
"               ",
"...............",
"...............",
"...............",
"...............",
".....+++++.....",
"...............",
"@@@@@+++++@@@@@",
"@@@@@@@@@@@@@@@",
"@@@@@+++++@@@@@",
"@@@@@@@@@@@@@@@",
"@@@@@@@@@@@@@@@",
"@@@@@@@@@@@@@@@",
"@@@@@@@@@@@@@@@",
"###############"};
