/* XPM */
static char * bar_xpm[] = {
"10 22 5 1",
" 	c None",
".	c #404040",
"+	c #272727",
"@	c #1A1A1A",
"#	c #0D0D0D",
"..........",
"++++++++++",
"++++++++++",
"++++++++++",
"++++++++++",
"++++++++++",
"++++++++++",
"++++++++++",
"++++++++++",
"++++++++++",
"++++++++++",
"@@@@@@@@@@",
"##########",
"##########",
"##########",
"##########",
"##########",
"##########",
"##########",
"##########",
"##########",
".........."};
