/* XPM */
static char * min_pressed_xpm[] = {
"22 22 85 1",
" 	c None",
".	c #404040",
"+	c #272727",
"@	c #262626",
"#	c #252525",
"$	c #242424",
"%	c #202020",
"&	c #1B1B1B",
"*	c #181818",
"=	c #161616",
"-	c #151515",
";	c #171717",
">	c #191919",
",	c #1C1C1C",
"'	c #1D1D1D",
")	c #212121",
"!	c #121212",
"~	c #090909",
"{	c #050505",
"]	c #040404",
"^	c #060606",
"/	c #0A0A0A",
"(	c #0C0C0C",
"_	c #141414",
":	c #101010",
"<	c #6D6D6D",
"[	c #D1D1D1",
"}	c #F6F6F6",
"|	c #FFFFFF",
"1	c #EAEAEA",
"2	c #969696",
"3	c #515151",
"4	c #A3A3A3",
"5	c #131313",
"6	c #5A5A5A",
"7	c #F5F5F5",
"8	c #C3CCB2",
"9	c #AFC58A",
"0	c #B3BDA0",
"a	c #E4ECD7",
"b	c #EFEFEF",
"c	c #585858",
"d	c #C9C9C9",
"e	c #FDFDFD",
"f	c #505050",
"g	c #E3E3E3",
"h	c #F7F7F7",
"i	c #98A87B",
"j	c #BBF35F",
"k	c #C4E38E",
"l	c #F9F9F9",
"m	c #DEDEDE",
"n	c #FEFEFE",
"o	c #757575",
"p	c #1A1A1A",
"q	c #979797",
"r	c #C3F078",
"s	c #C1F370",
"t	c #E6EBDD",
"u	c #898989",
"v	c #0E0E0E",
"w	c #0D0D0D",
"x	c #020202",
"y	c #9C9C9C",
"z	c #A9A9A9",
"A	c #F5FDE7",
"B	c #F1FDDF",
"C	c #EFFBDD",
"D	c #EDF9DB",
"E	c #FBFCFA",
"F	c #989898",
"G	c #030303",
"H	c #070707",
"I	c #363636",
"J	c #A9A7A9",
"K	c #FAFAFA",
"L	c #919191",
"M	c #080808",
"N	c #646464",
"O	c #6F6F6F",
"P	c #7D7D7D",
"Q	c #7C7C7C",
"R	c #555555",
"S	c #0B0B0B",
"T	c #010101",
"......................",
"++++++++++++++++++++++",
"++++++++++++++++++++++",
"++++++++++++++++++++++",
"++++++++++++++++++++++",
"+++++++@#$$$$$$#@@@+++",
"+++++#%&*==-==;>&,')++",
"+++$'!~{]]]]]]^~/(__$+",
"+++':]<[}||||12]34~~'+",
"+++5{67|89990abcde{{5+",
"+++/fghijjjjjklmno{{/+",
"ppp]q|}rjjjjst||uv^^]p",
"wwwxyz||ABCDE||F*GHHxw",
"www]3IxJn||||KL*GHMMww",
"wwwM~{{%cNOPQR>GM!SSww",
"wwwS//~^HxTTxG{~S(wwww",
"wwwwww((/~MMMM~/(wwwww",
"wwwwwwwwwwwwwwwwwwwwww",
"wwwwwwwwwwwwwwwwwwwwww",
"wwwwwwwwwwwwwwwwwwwwww",
"wwwwwwwwwwwwwwwwwwwwww",
"......................"};
