/* XPM */
static char * bullet_xpm[] = {
"18 18 3 1",
" 	c None",
".	c #ACACAC",
"+	c #FFFFFF",
"                  ",
"                  ",
"                  ",
"                  ",
"                  ",
"                  ",
"          .       ",
"          +.      ",
"          ++.     ",
"          +++.    ",
"          ++.     ",
"          +.      ",
"          .       ",
"                  ",
"                  ",
"                  ",
"                  ",
"                  "};
