/* XPM */
static char * bar_work_xpm[] = {
"48 20 125 2",
"  	c None",
". 	c #D5D8DE",
"+ 	c #D2D5DB",
"@ 	c #C7C9CF",
"# 	c #B4A5A8",
"$ 	c #943120",
"% 	c #9F3205",
"& 	c #BE7046",
"* 	c #D19250",
"= 	c #D2934A",
"- 	c #D2924A",
"; 	c #D3D6DC",
"> 	c #CACCD2",
", 	c #BCBDC2",
"' 	c #A66D5C",
") 	c #AD4B06",
"! 	c #C57522",
"~ 	c #D3954E",
"{ 	c #D49852",
"] 	c #D49752",
"^ 	c #CED0D6",
"/ 	c #C2C4CA",
"( 	c #AE9491",
"_ 	c #AB5119",
": 	c #C16B10",
"< 	c #D18F44",
"[ 	c #D3934B",
"} 	c #D6D9DF",
"| 	c #D0D3D9",
"1 	c #C5C8CE",
"2 	c #B3A9A9",
"3 	c #A95325",
"4 	c #BF660B",
"5 	c #CE883A",
"6 	c #D08C41",
"7 	c #D1D4DA",
"8 	c #C6C9CF",
"9 	c #B5ACAD",
"0 	c #A85426",
"a 	c #BE650A",
"b 	c #CB8330",
"c 	c #CD8636",
"d 	c #C5C8CD",
"e 	c #B2A3A2",
"f 	c #A95423",
"g 	c #C0660A",
"h 	c #C97D26",
"i 	c #CA7F2A",
"j 	c #CED1D6",
"k 	c #AC8C86",
"l 	c #AC5015",
"m 	c #C26B0E",
"n 	c #C8781F",
"o 	c #C87921",
"p 	c #CACDD2",
"q 	c #BDBEC3",
"r 	c #A86F5B",
"s 	c #B25106",
"t 	c #C36E0F",
"u 	c #C67519",
"v 	c #C6751A",
"w 	c #C4C7CC",
"x 	c #B5ACAF",
"y 	c #A64E23",
"z 	c #BA5C04",
"A 	c #C47010",
"B 	c #C47113",
"C 	c #C57113",
"D 	c #C57213",
"E 	c #CDD0D5",
"F 	c #BFBFC4",
"G 	c #AA8680",
"H 	c #AE4A06",
"I 	c #BF6507",
"J 	c #C36E0D",
"K 	c #C8CBD1",
"L 	c #B7B0B2",
"M 	c #A4573A",
"N 	c #BA5B03",
"O 	c #C16806",
"P 	c #C26A07",
"Q 	c #B2A0A0",
"R 	c #A64C20",
"S 	c #C06304",
"T 	c #C16703",
"U 	c #C3C6CB",
"V 	c #AF9592",
"W 	c #A84811",
"X 	c #C06502",
"Y 	c #C06600",
"Z 	c #AE9088",
"` 	c #AA4606",
" .	c #C06501",
"..	c #C1C4C9",
"+.	c #AE8E84",
"@.	c #AB4502",
"#.	c #C06601",
"$.	c #C16701",
"%.	c #AE8F87",
"&.	c #AB4706",
"*.	c #C66C07",
"=.	c #C46A04",
"-.	c #C3C5CB",
";.	c #AF9590",
">.	c #AA4911",
",.	c #CD720F",
"'.	c #CA700A",
").	c #C5C7CD",
"!.	c #B19E9E",
"~.	c #A84D20",
"{.	c #D47717",
"].	c #D27812",
"^.	c #D17711",
"/.	c #B7AFB1",
"(.	c #A3553A",
"_.	c #C96815",
":.	c #DD8121",
"<.	c #D67C16",
"[.	c #CCCFD5",
"}.	c #BFC0C5",
"|.	c #AA8885",
"1.	c #A3360F",
"2.	c #C55921",
"3.	c #D56D2C",
"4.	c #DA7332",
". + @ # $ % & * = = = = - = - = = = = = = = = = = = = - = - = = = - = - = = = = * & % $ # @ + . ",
". ; > , ' ) ! ~ { { { { { { { { { { { { { { { { { { { ] { { { { { { { { { { { { ~ ! ) ' , > ; . ",
". . ^ / ( _ : < [ [ [ [ [ [ [ [ [ [ [ [ [ [ [ [ [ [ [ [ [ [ [ [ [ [ [ [ [ [ [ [ < : _ ( / ^ . . ",
". } | 1 2 3 4 5 6 6 6 6 6 6 6 6 6 6 6 6 6 6 6 6 6 6 6 6 6 6 6 6 6 6 6 6 6 6 6 6 5 4 3 2 1 | } . ",
". } 7 8 9 0 a b c c c c c c c c c c c c c c c c c c c c c c c c c c c c c c c c b a 0 9 8 7 } . ",
". . | d e f g h i i i i i i i i i i i i i i i i i i i i i i i i i i i i i i i i h g f e d | . . ",
". . j / k l m n o o o o o o o o o o o o o o o o o o o o o o o o o o o o o o o o n m l k / j . . ",
". ; p q r s t u u v v u v u v v u v u v u v v u u v u u v u v u v v u v u v v u u t s r q p ; . ",
". | w x y z A B C C C C C C D C C C C C C C C C C C C C C C C C C D C C C C C C B A z y x w | . ",
". E F G H I J J J J J J J J J J J J J J J J J J J J J J J J J J J J J J J J J J J J I H G F E . ",
". K L M N O P P P P P P P P P P P P P P P P P P P P P P P P P P P P P P P P P P P P O N M L K . ",
"| d Q R S T T T T T T T T T T T T T T T T T T T T T T T T T T T T T T T T T T T T T T S R Q d | ",
"E U V W X Y Y Y Y Y Y Y Y Y Y Y Y Y Y Y Y Y Y Y Y Y Y Y Y Y Y Y Y Y Y Y Y Y Y Y Y Y Y X W V U E ",
"E / Z `  .Y Y Y Y Y Y Y Y Y Y Y Y Y Y Y Y Y Y Y Y Y Y Y Y Y Y Y Y Y Y Y Y Y Y Y Y Y Y  .` Z / E ",
"K ..+.@.#.$.$.$.$.$.$.$.$.$.$.$.$.$.$.$.$.$.$.$.$.$.$.$.$.$.$.$.$.$.$.$.$.$.$.$.$.$.$.#.@.+...K ",
"K ..%.&.*.=.=.=.=.=.=.=.=.=.=.=.=.=.=.=.=.=.=.=.=.=.=.=.=.=.=.=.=.=.=.=.=.=.=.=.=.=.=.*.&.%...K ",
"E -.;.>.,.'.'.'.'.'.'.'.'.'.'.'.'.'.'.'.'.'.'.'.'.'.'.'.'.'.'.'.'.'.'.'.'.'.'.'.'.'.'.,.>.;.-.E ",
"E ).!.~.{.].^.^.^.^.^.^.^.^.^.^.^.^.^.^.^.^.^.^.^.^.^.^.^.^.^.^.^.^.^.^.^.^.^.^.^.^.].{.~.!.).E ",
". K /.(._.:.<.<.<.<.<.<.<.<.<.<.<.<.<.<.<.<.<.<.<.<.<.<.<.<.<.<.<.<.<.<.<.<.<.<.<.<.:._.(./.K . ",
". [.}.|.1.2.3.4.4.4.4.4.4.4.4.4.4.4.4.4.4.4.4.4.4.4.4.4.4.4.4.4.4.4.4.4.4.4.4.4.4.3.2.1.|.}.[.. "};
