/* XPM */
static char * button_right_focused_xpm[] = {
"16 20 19 1",
" 	c None",
".	c #000000",
"+	c #CFCFCF",
"@	c #B6B6B6",
"#	c #ADADAD",
"$	c #A6A6A6",
"%	c #A2A2A2",
"&	c #9A9A9A",
"*	c #909090",
"=	c #858585",
"-	c #7D7D7D",
";	c #737373",
">	c #0B0B0B",
",	c #0A0A0A",
"'	c #090909",
")	c #070707",
"!	c #080808",
"~	c #060606",
"{	c #505050",
".+++++++++++++++",
".@@@@@@@@@@@@@@@",
".###############",
".$$$$$$$$$$$$$$$",
".%%%%%%%%%%%%%%%",
".&&&&&&&&&&&&&&&",
".***************",
".===============",
".---------------",
".;;;;;;;;;;;;;;;",
".>>>>>>>>>>>>>>>",
".>>>>>>>>>>>>>>>",
".,,,,,,,,,,,,,,,",
".'''''''''''''''",
".'''''''''''''''",
".)))))))))))))))",
".!!!!!!!!!!!!!!!",
".~~~~~~~~~~~~~~~",
".'''''''''''''''",
".{{{{{{{{{{{{{{{"};
