/* XPM */
static char * window_stick_focused_xpm[] = {
"18 18 66 1",
" 	g None",
".	g #E3E3E3",
"+	g #E4E4E4",
"@	g #A7A7A7",
"#	g #9F9F9F",
"$	g #959595",
"%	g #616161",
"&	g #393939",
"*	g #232323",
"=	g #949494",
"-	g #939393",
";	g #6D6D6D",
">	g #2D2D2D",
",	g #454545",
"'	g #565656",
")	g #555555",
"!	g #2C2C2C",
"~	g #888888",
"{	g #656565",
"]	g #323232",
"^	g #525252",
"/	g #484848",
"(	g #404040",
"_	g #535353",
":	g #313131",
"<	g #666666",
"[	g #7D7D7D",
"}	g #767676",
"|	g #292929",
"1	g #505050",
"2	g #4C4C4C",
"3	g #3D3D3D",
"4	g #3E3E3E",
"5	g #3F3F3F",
"6	g #2A2A2A",
"7	g #515151",
"8	g #4E4E4E",
"9	g #191919",
"0	g #202020",
"a	g #4A4A4A",
"b	g #414141",
"c	g #424242",
"d	g #474747",
"e	g #000000",
"f	g #1C1C1C",
"g	g #4D4D4D",
"h	g #444444",
"i	g #1D1D1D",
"j	g #494949",
"k	g #464646",
"l	g #1B1B1B",
"m	g #151515",
"n	g #2F2F2F",
"o	g #4B4B4B",
"p	g #161616",
"q	g #060606",
"r	g #373737",
"s	g #1F1F1F",
"t	g #101010",
"u	g #222222",
"v	g #353535",
"w	g #434343",
"x	g #343434",
"y	g #282828",
"z	g #141414",
"A	g #131313",
".+++++++++++++++++",
"@@@@@@@@@@@@@@@@@@",
"#####$%&**&%=#####",
"----;>,')'',!;----",
"~~~{]^^/((/^_:<~~~",
"[[}|12343353216}[[",
"[[7(8555555558(7[[",
"990a/bb(bbbcbda099",
"eefghhhhhhhhh,giee",
"eefjdkkkkkkkkdjfee",
"eel4jjjajjjjjj5lee",
"eemn,ooooaooo,npee",
"eeqir,8gg8g8/rsqee",
"eeetuvcjggjwxuteee",
"eeeetfy]rr]ylteeee",
"eeeeeqzzzmmAqeeeee",
"iiiiiiiiiiiiiiiiii",
"555555555555555555"};
