/* XPM */
static char * window_close_unfocused_xpm[] = {
"18 18 52 1",
" 	g None",
".	g #A1A1A1",
"+	g #A0A0A0",
"@	g #767676",
"#	g #707070",
"$	g #676767",
"%	g #3C3C3C",
"&	g #1C1C1C",
"*	g #0B0B0B",
"=	g #686868",
"-	g #474747",
";	g #111111",
">	g #202020",
",	g #2E2E2E",
"'	g #2D2D2D",
")	g #101010",
"!	g #606060",
"~	g #414141",
"{	g #121212",
"]	g #2A2A2A",
"^	g #2B2B2B",
"/	g #222222",
"(	g #2C2C2C",
"_	g #585858",
":	g #525252",
"<	g #0F0F0F",
"[	g #282828",
"}	g #252525",
"|	g #1A1A1A",
"1	g #1B1B1B",
"2	g #515151",
"3	g #313131",
"4	g #232323",
"5	g #1D1D1D",
"6	g #212121",
"7	g #000000",
"8	g #070707",
"9	g #272727",
"0	g #1F1F1F",
"a	g #262626",
"b	g #080808",
"c	g #242424",
"d	g #020202",
"e	g #151515",
"f	g #050505",
"g	g #0A0A0A",
"h	g #141414",
"i	g #1E1E1E",
"j	g #131313",
"k	g #0D0D0D",
"l	g #060606",
"m	g #040404",
".................+",
"@@@@@@@@@@@@@@@@@@",
"#####$%&**&%$#####",
"====-;>,',,>)-====",
"!!!~{]^/&&/]({~!!!",
"__:<[}|1||1|}[<2__",
"__3&[11111111[&3__",
"{{*4/&5&&&&5&64*{{",
"7789000000000>ab77",
"77b46>>>>>>>>64877",
"77b|444444444/1b77",
"778;>}}}}c}}}>;877",
"77dbe>[9a[9[/ebd77",
"777fgh549a4ijgf777",
"7777f8k{ee{k8f7777",
"77777dlfmmfld77777",
"hhhhhhhhhhhhhhhhhh",
"(((((((((((((((((("};
