/* XPM */
static char * window_bar_focused_xpm[] = {
"1 18 10 1",
" 	c #E4E4E4",
".	c #A7A7A7",
"+	c #9F9F9F",
"@	c #939393",
"#	c #888888",
"$	c #7D7D7D",
"%	c #191919",
"&	c #000000",
"*	c #1D1D1D",
"=	c #3F3F3F",
" ",
".",
"+",
"@",
"#",
"$",
"$",
"%",
"&",
"&",
"&",
"&",
"&",
"&",
"&",
"&",
"*",
"="};
