/* XPM */
static char * window_other_focused_xpm[] = {
"18 18 65 1",
" 	g None",
".	g #E4E4E4",
"+	g #A7A7A7",
"@	g #9F9F9F",
"#	g #959595",
"$	g #616161",
"%	g #393939",
"&	g #232323",
"*	g #949494",
"=	g #939393",
"-	g #6D6D6D",
";	g #2D2D2D",
">	g #454545",
",	g #565656",
"'	g #555555",
")	g #2C2C2C",
"!	g #888888",
"~	g #656565",
"{	g #323232",
"]	g #525252",
"^	g #484848",
"/	g #404040",
"(	g #535353",
"_	g #313131",
":	g #666666",
"<	g #7D7D7D",
"[	g #767676",
"}	g #292929",
"|	g #505050",
"1	g #4C4C4C",
"2	g #3D3D3D",
"3	g #3E3E3E",
"4	g #3F3F3F",
"5	g #2A2A2A",
"6	g #515151",
"7	g #4E4E4E",
"8	g #191919",
"9	g #202020",
"0	g #4A4A4A",
"a	g #414141",
"b	g #424242",
"c	g #474747",
"d	g #000000",
"e	g #1C1C1C",
"f	g #4D4D4D",
"g	g #444444",
"h	g #1D1D1D",
"i	g #494949",
"j	g #464646",
"k	g #1B1B1B",
"l	g #151515",
"m	g #2F2F2F",
"n	g #4B4B4B",
"o	g #161616",
"p	g #060606",
"q	g #373737",
"r	g #1F1F1F",
"s	g #101010",
"t	g #222222",
"u	g #353535",
"v	g #434343",
"w	g #343434",
"x	g #282828",
"y	g #141414",
"z	g #131313",
"..................",
"++++++++++++++++++",
"@@@@@#$%&&%$*@@@@@",
"====-;>,',,>)-====",
"!!!~{]]^//^](_:!!!",
"<<[}|12322421|5[<<",
"<<6/7444444447/6<<",
"8890^aa/aaabac0988",
"ddefggggggggg>fhdd",
"ddeicjjjjjjjjciedd",
"ddk3iii0iiiiii4kdd",
"ddlm>nnnn0nnn>modd",
"ddphq>7ff7f7^qrpdd",
"dddstubiffivwtsddd",
"ddddsex{qq{xksdddd",
"dddddpyyyllzpddddd",
"hhhhhhhhhhhhhhhhhh",
"444444444444444444"};
