/* XPM */
static char * min_pressed_xpm[] = {
"21 21 60 1",
" 	c None",
".	c #D5D5D5",
"+	c #D4D4D4",
"@	c #D6D6D6",
"#	c #D7D7D7",
"$	c #D8D8D8",
"%	c #EAEAEA",
"&	c #EBEBEB",
"*	c #525252",
"=	c #4C4C4C",
"-	c #333333",
";	c #464545",
">	c #454545",
",	c #464646",
"'	c #2B2B2B",
")	c #3E3E3F",
"!	c #3F3F3F",
"~	c #272727",
"{	c #676767",
"]	c #383838",
"^	c #383938",
"/	c #393938",
"(	c #393839",
"_	c #383939",
":	c #262626",
"<	c #707070",
"[	c #6F6F6F",
"}	c #6E6E6E",
"|	c #323232",
"1	c #323131",
"2	c #252525",
"3	c #6B6B6B",
"4	c #313131",
"5	c #6D6D6D",
"6	c #636363",
"7	c #5E5E5E",
"8	c #646464",
"9	c #595959",
"0	c #2A2A2A",
"a	c #565656",
"b	c #5C5C5C",
"c	c #686868",
"d	c #808080",
"e	c #696969",
"f	c #515151",
"g	c #303030",
"h	c #535353",
"i	c #656565",
"j	c #7D7D7D",
"k	c #FFFFFF",
"l	c #4E4E4E",
"m	c #353535",
"n	c #585858",
"o	c #7C7C7C",
"p	c #4D4D4D",
"q	c #575757",
"r	c #626262",
"s	c #414141",
"t	c #474747",
"u	c #DCDCDC",
"..+.@@###$$$$$$$$$$$$",
"%%%%%&%%&&&&&&&&&&&&&",
"&&&&&&&&&&&&&&&&&&&&&",
"*********************",
"=====----------------",
";;>>,''''''''''''''''",
")!!!!~{{{{{{{{{{{{{{{",
"]^/(_:{<<<<<<[[[}[[[[",
"||1||2{[[[[[[}}}}}333",
"444442{{{5555555{{666",
"444442{778[[[[[877999",
"444440{aabcddde7aafff",
"44444g{h9ijkkkj89*lll",
"44444m{**n8jjo6n**ppp",
"44444]{ffq68r66qff===",
"44444s{{{{{{{{{{{{{{{",
"44444tttttttttttttttt",
"44444tttttttttttttttt",
"444444444444444444444",
"uuuuuuuuuuuuuuuuuuuuu",
"uuuuuuuuuuuuuuuuuuuuu"};
