/* XPM */
static char * stick_pressed_xpm[] = {
"21 21 63 1",
" 	c None",
".	c #D8D8D8",
"+	c #D6D6D6",
"@	c #D7D7D7",
"#	c #EAEAEA",
"$	c #EBEBEB",
"%	c #464646",
"&	c #525252",
"*	c #474747",
"=	c #4C4C4C",
"-	c #4D4C4C",
";	c #4C4D4C",
">	c #4D4D4D",
",	c #4C4D4D",
"'	c #4D4D4C",
")	c #4D4C4D",
"!	c #4D4E4D",
"~	c #464545",
"{	c #454545",
"]	c #454646",
"^	c #464746",
"/	c #474647",
"(	c #474746",
"_	c #464647",
":	c #444444",
"<	c #3F3F3F",
"[	c #3F403F",
"}	c #3F3F40",
"|	c #40403F",
"1	c #3F4040",
"2	c #403F40",
"3	c #404040",
"4	c #404140",
"5	c #414141",
"6	c #383938",
"7	c #393938",
"8	c #393839",
"9	c #383939",
"0	c #3E3E3D",
"a	c #393939",
"b	c #39393A",
"c	c #393A39",
"d	c #3A3A3A",
"e	c #3A3A39",
"f	c #323232",
"g	c #323131",
"h	c #373837",
"i	c #3B3B3A",
"j	c #323332",
"k	c #333333",
"l	c #333332",
"m	c #343333",
"n	c #3C3C3C",
"o	c #313131",
"p	c #373737",
"q	c #4B4B4B",
"r	c #FFFFFF",
"s	c #383838",
"t	c #818181",
"u	c #363636",
"v	c #353535",
"w	c #DCDCDC",
"x	c #DDDDDD",
"....++.@.............",
".##$$###$$$$$$$$$$$$$",
".##$$$$$$$$$$$$$$$$$$",
".$%&&&&&&&&&&&&&&&&&&",
".$*====-;>,'-))>>>>>!",
".$%~{{%]]]%^%/^%%(**_",
".$:<<<<[<<}|1|2233343",
".$567890000000abbcdeb",
".$<fgfhh||3|3ihjklkkm",
".$nooop<<qqq<<poooooo",
".$dooop<qrrrq<poooooo",
".$sooop<qrtrq<poooooo",
".$sooop<qrrrq<poooooo",
".$pooop<<qqq<<poooooo",
".$pooopp<<<<<ppoooooo",
".$uoooopppppppooooooo",
".$uoooooooooooooooooo",
".$voooooooooooooooooo",
".$voooooooooooooooooo",
".wwwwwwwwwwwwwwwwxxxw",
".wwwwwwwwwwwwwwwwwwww"};
