/* XPM */
static char * stuck_xpm[] = {
"21 21 62 1",
" 	c None",
".	c #D8D8D8",
"+	c #D6D6D6",
"@	c #D7D7D7",
"#	c #EAEAEA",
"$	c #EBEBEB",
"%	c #464646",
"&	c #525252",
"*	c #474747",
"=	c #4C4C4C",
"-	c #4D4C4C",
";	c #4C4D4C",
">	c #4D4D4D",
",	c #4C4D4D",
"'	c #4D4D4C",
")	c #4D4C4D",
"!	c #4D4E4D",
"~	c #464545",
"{	c #454545",
"]	c #454646",
"^	c #464746",
"/	c #474647",
"(	c #474746",
"_	c #464647",
":	c #444444",
"<	c #3F3F3F",
"[	c #3F403F",
"}	c #3F3F40",
"|	c #40403F",
"1	c #3F4040",
"2	c #403F40",
"3	c #404040",
"4	c #404140",
"5	c #414141",
"6	c #383938",
"7	c #393938",
"8	c #393839",
"9	c #383939",
"0	c #393939",
"a	c #39393A",
"b	c #393A39",
"c	c #3A3A3A",
"d	c #3A3A39",
"e	c #323232",
"f	c #323131",
"g	c #333232",
"h	c #323233",
"i	c #333233",
"j	c #333332",
"k	c #323332",
"l	c #333333",
"m	c #343333",
"n	c #3C3C3C",
"o	c #313131",
"p	c #FFFFFF",
"q	c #383838",
"r	c #F5F5F5",
"s	c #373737",
"t	c #363636",
"u	c #353535",
"v	c #DCDCDC",
"w	c #DDDDDD",
"....++.@.............",
".##$$###$$$$$$$$$$$$$",
".##$$$$$$$$$$$$$$$$$$",
".$%&&&&&&&&&&&&&&&&&&",
".$*====-;>,'-))>>>>>!",
".$%~{{%]]]%^%/^%%(**_",
".$:<<<<[<<}|1|2233343",
".$5678970600000aabcda",
".$<efeeeegheijgkljllm",
".$noooooooooooooooooo",
".$coooooopppooooooooo",
".$qooooooprpooooooooo",
".$qoooooopppooooooooo",
".$soooooooooooooooooo",
".$soooooooooooooooooo",
".$toooooooooooooooooo",
".$toooooooooooolloooo",
".$uooooooooooooeeoooo",
".$uoooooooooooooooooo",
".vvvvvvvvvvvvvvvvwwwv",
".vvvvvvvvvvvvvvvvvvvv"};
