/* XPM */
static char * maximize_focused_xpm[] = {
"21 21 35 1",
" 	c None",
".	c #A1E0DE",
"+	c #6FC7B7",
"@	c #309B7F",
"#	c #329C7F",
"$	c #25755F",
"%	c #2E9578",
"&	c #22705A",
"*	c #54D3B8",
"=	c #29916F",
"-	c #1E6D53",
";	c #4BD0AE",
">	c #268C69",
",	c #1C694F",
"'	c #46CBA7",
")	c #248761",
"!	c #1B6549",
"~	c #43C79D",
"{	c #228660",
"]	c #196448",
"^	c #3FC69C",
"/	c #FFFFFF",
"(	c #22825B",
"_	c #196144",
":	c #3FC296",
"<	c #0C5427",
"[	c #093F1D",
"}	c #178C48",
"|	c #0A4D22",
"1	c #073919",
"2	c #14833F",
"3	c #0A4C21",
"4	c #0A4D21",
"5	c #094118",
"6	c #093F18",
".....................",
"+++++++++++++++++++++",
"@@@@@@@@@@@@@@@@@@@@@",
"###$$$$$$$$$$$$$$$###",
"%%%&*************&%%%",
"===-;;;;;;;;;;;;;-===",
">>>,''''''''''''',>>>",
")))!~~~~~~~~~~~~~!)))",
"{{{]^^^///////^^^]{{{",
"(((_:::///////:::_(((",
"<<<[}}}/}}}}}/}}}[<<<",
"|||1222/22222/2221|||",
"|||1222/22222/2221|||",
"|||1222///////2221|||",
"|||122222222222221|||",
"|||122222222222221|||",
"|||122222222222221|||",
"|||111111111111111|||",
"333333333333333333333",
"4444444444444444444||",
"555555566666666666666"};
