/* XPM */
static char * menu_highlight_xpm[] = {
"21 21 19 1",
" 	c None",
".	c #DFEBE3",
"+	c #6C9F7B",
"@	c #87B293",
"#	c #85B192",
"$	c #81AE8E",
"%	c #7FAD8D",
"&	c #7CAA8A",
"*	c #7AA988",
"=	c #78A886",
"-	c #77A785",
";	c #73A482",
">	c #6EA07D",
",	c #699D78",
"'	c #679B77",
")	c #669A75",
"!	c #649974",
"~	c #5F956F",
"{	c #5B926B",
".....................",
".....................",
".....................",
".....................",
".....................",
".....................",
".....................",
".....................",
".....................",
".....................",
"+++++++++++++++++++++",
"@@@##################",
"$$$$$$$$$$$%%%%%%%%%%",
"&&&&&&&&&&&&&&&&&&***",
"================-----",
";;;;;;;;;;;;;;;;;;;;;",
">>>>>>>>>>>>+++++++++",
",,,,,,,,,,,,,,,,,,,,'",
")!!!!!!!!!!!!!!!!!!!!",
"~~~~~~~~~~~~~~~~~~~~~",
"{{{{{{{{{{{{{{{{{{{{{"};
