/* XPM */
static char * minimize_focused_xpm[] = {
"21 21 36 1",
" 	c None",
".	c #A1E0DE",
"+	c #6FC7B7",
"@	c #309B7F",
"#	c #329C7F",
"$	c #25755F",
"%	c #2E9578",
"&	c #22705A",
"*	c #54D3B8",
"=	c #29916F",
"-	c #1E6D53",
";	c #4BD0AE",
">	c #268C69",
",	c #1C694F",
"'	c #46CBA7",
")	c #248761",
"!	c #1B6549",
"~	c #43C79D",
"{	c #228660",
"]	c #196448",
"^	c #3FC69C",
"/	c #22825B",
"(	c #196144",
"_	c #3FC296",
":	c #0C5427",
"<	c #093F1D",
"[	c #178C48",
"}	c #0A4D22",
"|	c #073919",
"1	c #14833F",
"2	c #72B58C",
"3	c #FFFFFF",
"4	c #0A4C21",
"5	c #0A4D21",
"6	c #094118",
"7	c #093F18",
".....................",
"+++++++++++++++++++++",
"@@@@@@@@@@@@@@@@@@@@@",
"###$$$$$$$$$$$$$$$###",
"%%%&*************&%%%",
"===-;;;;;;;;;;;;;-===",
">>>,''''''''''''',>>>",
")))!~~~~~~~~~~~~~!)))",
"{{{]^^^^^^^^^^^^^]{{{",
"///(_____________(///",
":::<[[[[[[[[[[[[[<:::",
"}}}|1111111111111|}}}",
"}}}|1112222222111|}}}",
"}}}|1113333333111|}}}",
"}}}|1111111111111|}}}",
"}}}|1111111111111|}}}",
"}}}|1111111111111|}}}",
"}}}|||||||||||||||}}}",
"444444444444444444444",
"5555555555555555555}}",
"666666677777777777777"};
