/* XPM */
static char * button_maximize_xpm[] = {
"16 16 30 1",
" 	c None",
".	c #303130",
"+	c #0A0A0A",
"@	c #4E4F4E",
"#	c #505150",
"$	c #565756",
"%	c #5A5B5A",
"&	c #575857",
"*	c #525352",
"=	c #676867",
"-	c #8A8B8A",
";	c #989898",
">	c #FFFFFF",
",	c #BFC0BF",
"'	c #9FA09F",
")	c #666766",
"!	c #999A99",
"~	c #5B5C5B",
"{	c #4F504F",
"]	c #262626",
"^	c #353535",
"/	c #818181",
"(	c #8A8A8A",
"_	c #434343",
":	c #B1B1B1",
"<	c #313131",
"[	c #717171",
"}	c #2B2B2B",
"|	c #454545",
"1	c #000000",
"................",
"++++++++++++++++",
"@@@#$%%%%%%&*@@@",
"@@*=-;;;;;;-=*@@",
"@@&->>>>>>>>-&@@",
"@@%;>,';;',>;%@@",
"@@%;>')%%)'>;%@@",
"@@%;>!~{{~!>;%@@",
"]]^/>(_^^_(>/^]]",
"]]^/>:(//(:>/^]]",
"]]<[>>>>>>>>[<]]",
"]]}|[//////[|}]]",
"]]]}<^^^^^^<}]]]",
"]]]]]]]]]]]]]]]]",
"1111111111111111",
"1111111111111111"};
