/* XPM */
static char * button_close_xpm[] = {
"16 16 41 1",
" 	c None",
".	c #303130",
"+	c #000000",
"@	c #4E4F4E",
"#	c #525352",
"$	c #555655",
"%	c #6A6B6A",
"&	c #818281",
"*	c #717271",
"=	c #505150",
"-	c #828282",
";	c #ECEDEC",
">	c #A6A7A6",
",	c #777877",
"'	c #5F605F",
")	c #F0F0F0",
"!	c #ACACAC",
"~	c #939493",
"{	c #575857",
"]	c #F1F1F1",
"^	c #C8C9C8",
"/	c #616261",
"(	c #F5F6F5",
"_	c #262626",
":	c #313131",
"<	c #595959",
"[	c #999999",
"}	c #EEEEEE",
"|	c #BCBCBC",
"1	c #2B2B2B",
"2	c #515151",
"3	c #929292",
"4	c #EDEDED",
"5	c #7B7B7B",
"6	c #2F2F2F",
"7	c #656565",
"8	c #E8E8E8",
"9	c #3B3B3B",
"0	c #484848",
"a	c #646464",
"b	c #282828",
"................",
"+++++++++++++++.",
"@@@#$#@@@#$#@@+.",
"@@#%&*$=$*&%#@+.",
"@@$-;>,',>;-$@+.",
"@@#*>)!~!)>*#@+.",
"@@@{,!]^]!,{@@+.",
"@@@=/~^(^~/=@@+.",
"___:<[}|}[<:__++",
"__1234[5[4321_++",
"__6783<9<3876_++",
"__10a26b62a01_++",
"___161___161__++",
"______________++",
"++++++++++++++++",
"++++++++++++++++"};
