/* XPM */
static char * max_unfocus_xpm[] = {
"20 20 5 1",
" 	c None",
".	c #222222",
"+	c #FFFFFF",
"@	c #000000",
"#	c #F6CE09",
"....................",
"....................",
"....................",
"....................",
"....................",
"....................",
"....................",
"....................",
"....................",
"....................",
"..........+.........",
".........+.+@.......",
"........+..@+@......",
"..........@...@.....",
"....................",
"....................",
"....................",
"....................",
"....................",
"####################"};
