/* XPM */
static char * menu_focused_xpm[] = {
"1 18 3 1",
" 	c None",
".	c #303130",
"+	c #000000",
".",
".",
".",
".",
".",
".",
".",
".",
".",
"+",
"+",
"+",
"+",
"+",
"+",
"+",
"+",
"+"};
