/* XPM */
static char * window_other_focused_xpm[] = {
"18 18 110 2",
"  	c #E4E4E4",
". 	c #A7A7A7",
"+ 	c #9F9F9F",
"@ 	c #959595",
"# 	c #616161",
"$ 	c #393939",
"% 	c #232323",
"& 	c #949494",
"* 	c #939393",
"= 	c #6D6D6D",
"- 	c #2D2D2D",
"; 	c #454545",
"> 	c #585656",
", 	c #565456",
"' 	c #565653",
") 	c #575656",
"! 	c #464548",
"~ 	c #2D2C2C",
"{ 	c #6C6D6D",
"] 	c #888888",
"^ 	c #666566",
"/ 	c #32322F",
"( 	c #535252",
"_ 	c #535253",
": 	c #484848",
"< 	c #404040",
"[ 	c #3F4040",
"} 	c #484846",
"| 	c #535352",
"1 	c #32312E",
"2 	c #656665",
"3 	c #7D7D7D",
"4 	c #767676",
"5 	c #292929",
"6 	c #515050",
"7 	c #4D4C4B",
"8 	c #3D3D3D",
"9 	c #3D3F3D",
"0 	c #3F3D3D",
"a 	c #3F3F3F",
"b 	c #3D3D3C",
"c 	c #4D4C4C",
"d 	c #525050",
"e 	c #2B292C",
"f 	c #515152",
"g 	c #4E4E4E",
"h 	c #3F3F41",
"i 	c #413F3F",
"j 	c #3F3F3C",
"k 	c #403F3F",
"l 	c #3F3F40",
"m 	c #4E4E50",
"n 	c #515151",
"o 	c #191919",
"p 	c #20201F",
"q 	c #4B4A4A",
"r 	c #484849",
"s 	c #414140",
"t 	c #404240",
"u 	c #424041",
"v 	c #414143",
"w 	c #414141",
"x 	c #414241",
"y 	c #484648",
"z 	c #4A4A4A",
"A 	c #202020",
"B 	c #000000",
"C 	c #1C1C1C",
"D 	c #4E4D4E",
"E 	c #454444",
"F 	c #4D4D4C",
"G 	c #1D1D1D",
"H 	c #1B1D1A",
"I 	c #494948",
"J 	c #484646",
"K 	c #484649",
"L 	c #4A4949",
"M 	c #1A1C19",
"N 	c #403D3F",
"O 	c #484948",
"P 	c #49494A",
"Q 	c #4A494A",
"R 	c #494949",
"S 	c #4A484A",
"T 	c #3D3F40",
"U 	c #1B1B1B",
"V 	c #151515",
"W 	c #2F2F2F",
"X 	c #464545",
"Y 	c #4C4B4B",
"Z 	c #4C4B4C",
"` 	c #4B4A4B",
" .	c #161616",
"..	c #060606",
"+.	c #383737",
"@.	c #464546",
"#.	c #504E4E",
"$.	c #4E4D4D",
"%.	c #373737",
"&.	c #1F1F1F",
"*.	c #101010",
"=.	c #222222",
"-.	c #353535",
";.	c #434243",
">.	c #434343",
",.	c #343434",
"'.	c #282828",
").	c #323232",
"!.	c #141414",
"~.	c #131313",
"                                    ",
". . . . . . . . . . . . . . . . . . ",
"+ + + + + @ # $ % % $ # & + + + + + ",
"* * * * = - ; > , ' ) ! ~ { * * * * ",
"] ] ] ^ / ( _ : < [ } ( | 1 2 ] ] ] ",
"3 3 4 5 6 7 8 9 8 0 a b c d e 4 3 3 ",
"3 3 f < g h i a j k a a l m < n 3 3 ",
"o o p q r s t u v w s x w y z A o o ",
"B B C D E E E E E E E E E ; F G B B ",
"B B H I y J J J J J J J J K L C B B ",
"B B M N O L I z P Q I I R S T U B B ",
"B B V W X Y Y Z Z ` Z Y Y ; W  .B B ",
"B B ..G +.@.#.D $.#.D #.: %.&...B B ",
"B B B *.=.-.;.L D $.R >.,.=.*.B B B ",
"B B B B *.C '.).%.%.).'.U *.B B B B ",
"B B B B B ..!.!.!.V V ~...B B B B B ",
"G G G G G G G G G G G G G G G G G G ",
"a a a a a a a a a a a a a a a a a a "};
