/* XPM */
static char * window_stick_unfocused_xpm[] = {
"18 18 114 2",
"  	c None",
". 	c #A0A0A0",
"+ 	c #A1A1A1",
"@ 	c #9F9F9F",
"# 	c #767676",
"$ 	c #9D9D9D",
"% 	c #707070",
"& 	c #696969",
"* 	c #444444",
"= 	c #282828",
"- 	c #191919",
"; 	c #686868",
"> 	c #9A9A9A",
", 	c #4D4D4D",
"' 	c #202020",
") 	c #313131",
"! 	c #3E3D3D",
"~ 	c #3D3B3D",
"{ 	c #3D3D3B",
"] 	c #3D3D3D",
"^ 	c #313133",
"/ 	c #201F1F",
"( 	c #4C4D4D",
"_ 	c #969696",
": 	c #606060",
"< 	c #484748",
"[ 	c #232321",
"} 	c #3B3A3A",
"| 	c #3B3A3B",
"1 	c #333333",
"2 	c #2D2D2D",
"3 	c #2C2D2D",
"4 	c #333331",
"5 	c #3B3B3A",
"6 	c #232320",
"7 	c #474847",
"8 	c #939393",
"9 	c #535353",
"0 	c #1D1D1D",
"a 	c #393838",
"b 	c #363635",
"c 	c #2B2B2B",
"d 	c #2B2C2B",
"e 	c #2C2B2B",
"f 	c #2C2C2C",
"g 	c #2B2B2A",
"h 	c #363636",
"i 	c #3A3838",
"j 	c #1E1D1F",
"k 	c #585858",
"l 	c #39393A",
"m 	c #373737",
"n 	c #2C2C2E",
"o 	c #2E2C2C",
"p 	c #2C2C2A",
"q 	c #2D2C2C",
"r 	c #2C2C2D",
"s 	c #373738",
"t 	c #393939",
"u 	c #8E8E8E",
"v 	c #171716",
"w 	c #353434",
"x 	c #333334",
"y 	c #2E2E2D",
"z 	c #2D2F2D",
"A 	c #2F2D2E",
"B 	c #2E2E2F",
"C 	c #2E2E2E",
"D 	c #2E2F2E",
"E 	c #333133",
"F 	c #343434",
"G 	c #171717",
"H 	c #121212",
"I 	c #8A8A8A",
"J 	c #141414",
"K 	c #373637",
"L 	c #313030",
"M 	c #000000",
"N 	c #838383",
"O 	c #131412",
"P 	c #343433",
"Q 	c #333131",
"R 	c #333134",
"S 	c #7C7C7C",
"T 	c #121412",
"U 	c #2D2B2C",
"V 	c #333433",
"W 	c #343334",
"X 	c #2B2C2D",
"Y 	c #131313",
"Z 	c #757575",
"` 	c #0F0F0F",
" .	c #212121",
"..	c #363535",
"+.	c #363536",
"@.	c #353435",
"#.	c #101010",
"$.	c #5D5D5D",
"%.	c #040404",
"&.	c #282727",
"*.	c #383737",
"=.	c #373636",
"-.	c #272727",
";.	c #161616",
">.	c #0B0B0B",
",.	c #181818",
"'.	c #252525",
").	c #2F2F2F",
"!.	c #515151",
"~.	c #1C1C1C",
"{.	c #232323",
"].	c #4B4B4B",
"^.	c #0E0E0E",
"/.	c #0D0D0D",
". + + + + + + + + + + + + + + + + + ",
"@ # # # # # # # # # # # # # # # # # ",
"$ % % % & * = - - = * ; % % % % % % ",
"> ; ; , ' ) ! ~ { ] ^ / ( ; ; ; ; ; ",
"_ : < [ } | 1 2 3 4 } 5 6 7 : : : : ",
"8 9 0 a b c d c e f g h i j 9 k k k ",
"8 l 2 m n o f p q f f r s 2 t k k k ",
"u v w x y z A B C y D C E F G H H H ",
"I J K L L L L L L L L L ) h J M M M ",
"N O P E Q Q Q Q Q Q Q Q R F J M M M ",
"S T U V F P F F F P P F W X Y M M M ",
"Z `  .) ....+.+.@.+.....)  .#.M M M ",
"$.%.J &.) *.K =.*.K *.1 -.;.%.M M M ",
"k M >.,.'.).F K =.F ).'.,.>.M M M M ",
"!.M M >.J ~.{.-.-.{.~.Y >.M M M M M ",
"].M M M %.^.^.^.` ` /.%.M M M M M M ",
"* J J J J J J J J J J J J J J J J J ",
"] f f f f f f f f f f f f f f f f f "};
