/* XPM */
static char * window_stick_focused_xpm[] = {
"18 18 126 2",
"  	c #E3E3E3",
". 	c #E4E4E4",
"+ 	c #E1E1E1",
"@ 	c #A7A7A7",
"# 	c #DEDEDE",
"$ 	c #9F9F9F",
"% 	c #959595",
"& 	c #616161",
"* 	c #393939",
"= 	c #232323",
"- 	c #949494",
"; 	c #DADADA",
"> 	c #939393",
", 	c #6D6D6D",
"' 	c #2D2D2D",
") 	c #454545",
"! 	c #585656",
"~ 	c #565456",
"{ 	c #565653",
"] 	c #575656",
"^ 	c #464548",
"/ 	c #2D2C2C",
"( 	c #6C6D6D",
"_ 	c #D5D5D5",
": 	c #888888",
"< 	c #666566",
"[ 	c #32322F",
"} 	c #535252",
"| 	c #535253",
"1 	c #484848",
"2 	c #404040",
"3 	c #3F4040",
"4 	c #484846",
"5 	c #535352",
"6 	c #32312E",
"7 	c #656665",
"8 	c #D0D0D0",
"9 	c #767676",
"0 	c #292929",
"a 	c #515050",
"b 	c #4D4C4B",
"c 	c #3D3D3D",
"d 	c #3D3F3D",
"e 	c #3F3D3D",
"f 	c #3F3F3F",
"g 	c #3D3D3C",
"h 	c #4D4C4C",
"i 	c #525050",
"j 	c #2B292C",
"k 	c #7D7D7D",
"l 	c #515152",
"m 	c #4E4E4E",
"n 	c #3F3F41",
"o 	c #413F3F",
"p 	c #3F3F3C",
"q 	c #403F3F",
"r 	c #3F3F40",
"s 	c #4E4E50",
"t 	c #515151",
"u 	c #C9C9C9",
"v 	c #20201F",
"w 	c #4B4A4A",
"x 	c #484849",
"y 	c #414140",
"z 	c #404240",
"A 	c #424041",
"B 	c #414143",
"C 	c #414141",
"D 	c #414241",
"E 	c #484648",
"F 	c #4A4A4A",
"G 	c #202020",
"H 	c #191919",
"I 	c #C3C3C3",
"J 	c #1C1C1C",
"K 	c #4E4D4E",
"L 	c #454444",
"M 	c #4D4D4C",
"N 	c #1D1D1D",
"O 	c #000000",
"P 	c #B9B9B9",
"Q 	c #1B1D1A",
"R 	c #494948",
"S 	c #484646",
"T 	c #484649",
"U 	c #4A4949",
"V 	c #AFAFAF",
"W 	c #1A1C19",
"X 	c #403D3F",
"Y 	c #484948",
"Z 	c #49494A",
"` 	c #4A494A",
" .	c #494949",
"..	c #4A484A",
"+.	c #3D3F40",
"@.	c #1B1B1B",
"#.	c #A6A6A6",
"$.	c #151515",
"%.	c #2F2F2F",
"&.	c #464545",
"*.	c #4C4B4B",
"=.	c #4C4B4C",
"-.	c #4B4A4B",
";.	c #161616",
">.	c #848484",
",.	c #060606",
"'.	c #383737",
").	c #464546",
"!.	c #504E4E",
"~.	c #4E4D4D",
"{.	c #373737",
"].	c #1F1F1F",
"^.	c #7C7C7C",
"/.	c #101010",
"(.	c #222222",
"_.	c #353535",
":.	c #434243",
"<.	c #434343",
"[.	c #343434",
"}.	c #737373",
"|.	c #282828",
"1.	c #323232",
"2.	c #6A6A6A",
"3.	c #141414",
"4.	c #131313",
"5.	c #575757",
"  . . . . . . . . . . . . . . . . . ",
"+ @ @ @ @ @ @ @ @ @ @ @ @ @ @ @ @ @ ",
"# $ $ $ % & * = = * & - $ $ $ $ $ $ ",
"; > > , ' ) ! ~ { ] ^ / ( > > > > > ",
"_ : < [ } | 1 2 3 4 } 5 6 7 : : : : ",
"8 9 0 a b c d c e f g h i j 9 k k k ",
"8 l 2 m n o f p q f f r s 2 t k k k ",
"u v w x y z A B C y D C E F G H H H ",
"I J K L L L L L L L L L ) M N O O O ",
"P Q R E S S S S S S S S T U J O O O ",
"V W X Y U R F Z ` R R  ...+.@.O O O ",
"#.$.%.&.*.*.=.=.-.=.*.*.) %.;.O O O ",
">.,.N '.).!.K ~.!.K !.1 {.].,.O O O ",
"^.O /.(._.:.U K ~. .<.[.(./.O O O O ",
"}.O O /.J |.1.{.{.1.|.@./.O O O O O ",
"2.O O O ,.3.3.3.$.$.4.,.O O O O O O ",
"& N N N N N N N N N N N N N N N N N ",
"5.f f f f f f f f f f f f f f f f f "};
