/* XPM */
static char * max_pressed_xpm[] = {
"22 22 86 1",
" 	c None",
".	c #404040",
"+	c #272727",
"@	c #262626",
"#	c #252525",
"$	c #242424",
"%	c #202020",
"&	c #1B1B1B",
"*	c #181818",
"=	c #161616",
"-	c #151515",
";	c #171717",
">	c #191919",
",	c #1C1C1C",
"'	c #1D1D1D",
")	c #212121",
"!	c #121212",
"~	c #090909",
"{	c #050505",
"]	c #040404",
"^	c #060606",
"/	c #0A0A0A",
"(	c #0C0C0C",
"_	c #141414",
":	c #101010",
"<	c #6D6D6D",
"[	c #D1D1D1",
"}	c #F6F6F6",
"|	c #FFFFFF",
"1	c #EAEAEA",
"2	c #969696",
"3	c #515151",
"4	c #A3A3A3",
"5	c #131313",
"6	c #5A5A5A",
"7	c #F5F5F5",
"8	c #B2CBCC",
"9	c #8AC2C5",
"0	c #8AB6B9",
"a	c #A0BCBD",
"b	c #D7EBEC",
"c	c #EFEFEF",
"d	c #585858",
"e	c #C9C9C9",
"f	c #FDFDFD",
"g	c #505050",
"h	c #E3E3E3",
"i	c #F7F7F7",
"j	c #7BA6A8",
"k	c #5FEBF3",
"l	c #8EDFE3",
"m	c #F9F9F9",
"n	c #DEDEDE",
"o	c #FEFEFE",
"p	c #757575",
"q	c #1A1A1A",
"r	c #979797",
"s	c #78EAF0",
"t	c #70EBF3",
"u	c #DDEAEB",
"v	c #898989",
"w	c #0E0E0E",
"x	c #0D0D0D",
"y	c #020202",
"z	c #9C9C9C",
"A	c #A9A9A9",
"B	c #E7FCFD",
"C	c #DFFBFD",
"D	c #DDF9FB",
"E	c #DBF7F9",
"F	c #FAFCFC",
"G	c #989898",
"H	c #030303",
"I	c #070707",
"J	c #363636",
"K	c #A9A7A9",
"L	c #FAFAFA",
"M	c #8F8F8F",
"N	c #080808",
"O	c #646464",
"P	c #6F6F6F",
"Q	c #7D7D7D",
"R	c #7C7C7C",
"S	c #555555",
"T	c #0B0B0B",
"U	c #010101",
"......................",
"++++++++++++++++++++++",
"++++++++++++++++++++++",
"++++++++++++++++++++++",
"++++++++++++++++++++++",
"+++++++@#$$$$$$#@@@+++",
"+++++#%&*==-==;>&,')++",
"+++$'!~{]]]]]]^~/(__$+",
"+++':]<[}||||12]34~~'+",
"+++5{67|8990abcdef{{5+",
"+++/ghijkkkkklmnop{{/+",
"qqq]r|}skkkktu||vw^^]q",
"xxxyzA||BCDEF||G*HIIyx",
"xxx]3JyKo||||LM*HINNxx",
"xxxN~{{%dOPQRS>HN!TTxx",
"xxxT//~^IyUUyH{~T(xxxx",
"xxxxxx((/~NNNN~/(xxxxx",
"xxxxxxxxxxxxxxxxxxxxxx",
"xxxxxxxxxxxxxxxxxxxxxx",
"xxxxxxxxxxxxxxxxxxxxxx",
"xxxxxxxxxxxxxxxxxxxxxx",
"......................"};
