/* XPM */
static char * tbarfcs_xpm[] = {
"1 15 13 1",
" 	c #5E5E5E",
".	c #5D5D5D",
"+	c #5C5C5C",
"@	c #5A5A5A",
"#	c #595959",
"$	c #575757",
"%	c #565656",
"&	c #3C3C3C",
"*	c #3B3B3B",
"=	c #3A3A3A",
"-	c #383838",
";	c #363636",
">	c #353535",
" ",
".",
"+",
"@",
"#",
"$",
"%",
"&",
"*",
"=",
"-",
";",
">",
">",
">"};
