/* XPM */
static char * tbarufcs_xpm[] = {
"1 15 4 1",
" 	c #FFFFFF",
".	c #E3DFD5",
"+	c #CAC6BC",
"@	c #A5A299",
" ",
".",
".",
".",
".",
".",
".",
"+",
"+",
"+",
"+",
"+",
"+",
"+",
"@"};
