/* XPM */
static char * hilite_select_xpm[] = {
"19 19 2 1",
" 	c None",
".	c #DEDEDE",
"                   ",
"                   ",
"                   ",
"                   ",
"                   ",
"                   ",
"                   ",
"          ......   ",
"          .    .   ",
"          . .. .   ",
"          . .. .   ",
"          .    .   ",
"          ......   ",
"                   ",
"                   ",
"                   ",
"                   ",
"                   ",
"                   "};
