/* XPM */
static char * toolbar_focused_xpm[] = {
"21 21 23 1",
" 	c None",
".	c #999999",
"+	c #272727",
"@	c #3F3F3F",
"#	c #3D3D3D",
"$	c #3B3B3B",
"%	c #3A3A3A",
"&	c #393939",
"*	c #383838",
"=	c #363636",
"-	c #353535",
";	c #343434",
">	c #323232",
",	c #313131",
"'	c #303030",
")	c #2F2F2F",
"!	c #2E2E2E",
"~	c #2C2C2C",
"{	c #2B2B2B",
"]	c #2A2A2A",
"^	c #292929",
"/	c #282828",
"(	c #0D0D0D",
".....................",
"+++++++++++++++++++++",
"@@@@@@@@@@@##########",
"$%%%%%&&&&&&&&&&&&***",
"==-----;;;;;;;;;;;>>>",
",,'''''')))))!!!!!!!!",
"~~~{{{{{{]]]]]^^^^^^/",
"+++++++++++++++++++++",
"+++++++++++++++++++++",
"+++++++++++++++++++++",
"+++++++++++++++++++++",
"+++++++++++++++++++++",
"+++++++++++++++++++++",
"+++++++++++++++++++++",
"+++++++++++++++++++++",
"+++++++++++++++++++++",
"+++++++++++++++++++++",
"+++++++++++++++++++++",
"+++++++++++++++++++++",
"(((((((((((((((((((((",
"....................."};
