/* XPM */
static char * stick_unfocused1_xpm[] = {
"21 21 39 1",
" 	c None",
".	c #A1E0DE",
"+	c #6FC7B7",
"@	c #309B7F",
"#	c #329C7F",
"$	c #25755F",
"%	c #2E9578",
"&	c #22705A",
"*	c #44BA9E",
"=	c #29916F",
"-	c #1E6D53",
";	c #3DB694",
">	c #268C69",
",	c #1C694F",
"'	c #39B18E",
")	c #248761",
"!	c #1B6549",
"~	c #36AD85",
"{	c #A1D6C4",
"]	c #228660",
"^	c #196448",
"/	c #33AC84",
"(	c #A0D5C3",
"_	c #22825B",
":	c #196144",
"<	c #33A87E",
"[	c #A0D3C0",
"}	c #0C5427",
"|	c #093F1D",
"1	c #12753A",
"2	c #92BCA3",
"3	c #0A4D22",
"4	c #073919",
"5	c #106D33",
"6	c #91B9A0",
"7	c #0A4C21",
"8	c #0A4D21",
"9	c #094118",
"0	c #093F18",
".....................",
"+++++++++++++++++++++",
"@@@@@@@@@@@@@@@@@@@@@",
"###$$$$$$$$$$$$$$$###",
"%%%&*************&%%%",
"===-;;;;;;;;;;;;;-===",
">>>,''''''''''''',>>>",
")))!~~~~~~{~~~~~~!)))",
"]]]^//////(//////^]]]",
"___:<<<<<<[<<<<<<:___",
"}}}|1112222222111|}}}",
"333455555565555554333",
"333455555565555554333",
"333455555565555554333",
"333455555555555554333",
"333455555555555554333",
"333455555555555554333",
"333444444444444444333",
"777777777777777777777",
"888888888888888888833",
"999999900000000000000"};
