/* XPM */
static char * max_pressed_xpm[] = {
"21 21 43 1",
" 	c None",
".	c #D8D8D8",
"+	c #D7D7D7",
"@	c #D9D9D9",
"#	c #EBEBEB",
"$	c #EAEAEA",
"%	c #525252",
"&	c #333333",
"*	c #2B2B2B",
"=	c #676767",
"-	c #6B6B6B",
";	c #6F6F6F",
">	c #6E6E6E",
",	c #727272",
"'	c #777777",
")	c #787878",
"!	c #6A6A6A",
"~	c #737373",
"{	c #7D7D7D",
"]	c #636363",
"^	c #6D6D6D",
"/	c #8D8D8D",
"(	c #8C8C8C",
"_	c #595959",
":	c #5E5E5E",
"<	c #646464",
"[	c #858585",
"}	c #FFFFFF",
"|	c #575757",
"1	c #5D5D5D",
"2	c #696969",
"3	c #808080",
"4	c #515151",
"5	c #4E4E4E",
"6	c #535353",
"7	c #656565",
"8	c #4D4D4D",
"9	c #585858",
"0	c #4C4C4C",
"a	c #474747",
"b	c #313131",
"c	c #DDDDDD",
"d	c #DCDCDC",
"........+.+.....@....",
"#######$#############",
"#####################",
"%%%%%%%%%%%%%%%%%%%%%",
"&&&&&&&&&&&&&&&&&&&&&",
"*********************",
"=====---------=======",
";>>>,,''''))),,;>>>;;",
"!!!!>~~{{{{{~~>!!!!!-",
"]]]]=^''//(''^=]]]]]]",
"____:<;[}}}[;<:______",
"%%%%|123}3}321|%%%%%4",
"55556_7{}}}{7_6555555",
"8888%9<<{{{<<9%888888",
"00004||]]]]]||4000000",
"=====================",
"aaaaaaaaaaaaaaaaaaaaa",
"aaaaaaaaaaaaaaaaaaaaa",
"bbbbbbbbbbbbbbbbbbbbb",
"ccccccccccccccccccccd",
"ccccccccccccccccccccc"};
