/* XPM */
static char * max_focus_xpm[] = {
"21 21 26 1",
" 	c None",
".	c #D8D8D8",
"+	c #D7D7D7",
"@	c #D9D9D9",
"#	c #EBEBEB",
"$	c #EAEAEA",
"%	c #525252",
"&	c #333333",
"*	c #2B2B2B",
"=	c #676767",
"-	c #6F6F6F",
";	c #6E6E6E",
">	c #6A6A6A",
",	c #6B6B6B",
"'	c #636363",
")	c #626262",
"!	c #595959",
"~	c #B3B3B3",
"{	c #515151",
"]	c #4E4E4E",
"^	c #4D4D4D",
"/	c #4C4C4C",
"(	c #474747",
"_	c #313131",
":	c #DDDDDD",
"<	c #DCDCDC",
"........+.+.....@....",
"#######$#############",
"#####################",
"%%%%%%%%%%%%%%%%%%%%%",
"&&&&&&&&&&&&&&&&&&&&&",
"*********************",
"=====================",
"-;;;;;;;;;---;;-;;;--",
">>>>>>>>>>>>>>>>>>>>,",
"'''''''''')''''''''''",
"!!!!!!!!~~~!!!!!!!!!!",
"%%%%%%%%~%~%%%%%%%%%{",
"]]]]]]]]~~~]]]]]]]]]]",
"^^^^^^^^^^^^^^^^^^^^^",
"/////////////////////",
"=====================",
"(((((((((((((((((((((",
"(((((((((((((((((((((",
"_____________________",
"::::::::::::::::::::<",
":::::::::::::::::::::"};
