/* XPM */
static char * min_focus_xpm[] = {
"21 21 49 1",
" 	c None",
".	c #D5D5D5",
"+	c #D4D4D4",
"@	c #D6D6D6",
"#	c #D7D7D7",
"$	c #D8D8D8",
"%	c #EAEAEA",
"&	c #EBEBEB",
"*	c #525252",
"=	c #4C4C4C",
"-	c #333333",
";	c #464545",
">	c #454545",
",	c #464646",
"'	c #2B2B2B",
")	c #3E3E3F",
"!	c #3F3F3F",
"~	c #272727",
"{	c #676767",
"]	c #383838",
"^	c #383938",
"/	c #393938",
"(	c #393839",
"_	c #383939",
":	c #262626",
"<	c #707070",
"[	c #6F6F6F",
"}	c #6E6E6E",
"|	c #323232",
"1	c #323131",
"2	c #252525",
"3	c #6B6B6B",
"4	c #6A6A6A",
"5	c #313131",
"6	c #636363",
"7	c #595959",
"8	c #2A2A2A",
"9	c #515151",
"0	c #535353",
"a	c #303030",
"b	c #4E4E4E",
"c	c #B3B3B3",
"d	c #4D4D4D",
"e	c #353535",
"f	c #4A4A4A",
"g	c #4B4B4B",
"h	c #414141",
"i	c #474747",
"j	c #DCDCDC",
"..+.@@###$$$$$$$$$$$$",
"%%%%%&%%&&&&&&&&&&&&&",
"&&&&&&&&&&&&&&&&&&&&&",
"*********************",
"=====----------------",
";;>>,''''''''''''''''",
")!!!!~{{{{{{{{{{{{{{{",
"]^/(_:{<<<<<<[[[}[[[[",
"||1||2{33333344444333",
"555552{66666666666666",
"555552{77777777777777",
"555558{9999999*099999",
"55555a{bbbbcccddbdbbb",
"55555e{dddddd==dddddd",
"55555]{====dfg=======",
"55555h{{{{{{{{{{{{{{{",
"55555iiiiiiiiiiiiiiii",
"55555iiiiiiiiiiiiiiii",
"555555555555555555555",
"jjjjjjjjjjjjjjjjjjjjj",
"jjjjjjjjjjjjjjjjjjjjj"};
