/* XPM */
static char * title_menu_xpm[] = {
"21 21 57 1",
" 	c None",
".	c #D8D8D8",
"+	c #D9D9D9",
"@	c #EBEBEB",
"#	c #EAEAEA",
"$	c #EAEAEB",
"%	c #EBEAEB",
"&	c #EBEBEA",
"*	c #EAEAE9",
"=	c #E9EAEA",
"-	c #EAE9E9",
";	c #E9EAE9",
">	c #E9E9E9",
",	c #E8E8E9",
"'	c #E8E9E9",
")	c #E8E8E8",
"!	c #E9E8E8",
"~	c #E7E8E8",
"{	c #E7E7E7",
"]	c #E7E8E7",
"^	c #E6E7E7",
"/	c #E7E6E7",
"(	c #E6E6E7",
"_	c #E5E5E6",
":	c #E6E5E6",
"<	c #E5E6E5",
"[	c #E6E6E5",
"}	c #E5E5E5",
"|	c #E5E5E4",
"1	c #E4E5E5",
"2	c #E5E4E5",
"3	c #E4E5E4",
"4	c #E4E4E4",
"5	c #E4E4E3",
"6	c #E3E2E3",
"7	c #E3E3E3",
"8	c #E2E3E3",
"9	c #E2E2E2",
"0	c #E2E3E2",
"a	c #E3E2E2",
"b	c #E1E2E1",
"c	c #E2E2E1",
"d	c #E2E1E2",
"e	c #E1E1E1",
"f	c #E2E1E1",
"g	c #E1E0E1",
"h	c #E0E0E1",
"i	c #E0E0E0",
"j	c #E0DFE0",
"k	c #DFE0E0",
"l	c #DFDFDF",
"m	c #DFDFE0",
"n	c #DFDEDF",
"o	c #DEDEDF",
"p	c #DEDEDE",
"q	c #DDDDDD",
"r	c #DEDDDD",
".+.......+...........",
"@@@@@@@@@@@@@@@@@@@@#",
"@@@@@@@@@@@@@@@@@@@@@",
"@@@@@@@@@@@@@@@@@@@@@",
"@@@@@$%%@&####*#=-#;>",
">,')!)~))))){]{{{{^/(",
"_:<[}}}|}1|2324444454",
"678690a999bbc9defegee",
"hijjkllkmllllnnoopppp",
"qrqqqqqqqqqqqqqqqqqqq",
"qqqqqqqqqqqqqqqqqqqqq",
"qqqqqqqqqqqqqqqqqqqqq",
"qqqqqqqqqqqqqqqqqqqqq",
"qqqqqqqqqqqqqqqqqqqqq",
"qqqqqqqqqqqqqqqqqqqqq",
"qqqqqqqqqqqqqqqqqqqqq",
"qqqqqqqqqqqqqqqqqqqqq",
"qqqqqqqqqqqqqqqqqqqqq",
"qqqqqqqqqqqqqqqqqqqqq",
"qqqqqqqqqqqqqqqqqqqqq",
"qqqqqqqqqqqqqqqqqqqqq"};
