/* XPM */
static char * window_close_unfocused_xpm[] = {
"18 18 101 2",
"  	c None",
". 	c #A1A1A1",
"+ 	c #A0A0A0",
"@ 	c #767676",
"# 	c #9F9F9F",
"$ 	c #707070",
"% 	c #676767",
"& 	c #3C3C3C",
"* 	c #1C1C1C",
"= 	c #0B0B0B",
"- 	c #9D9D9D",
"; 	c #686868",
"> 	c #474747",
", 	c #111111",
"' 	c #202020",
") 	c #302E2E",
"! 	c #2E2C2E",
"~ 	c #2E2E2C",
"{ 	c #2F2E2E",
"] 	c #202022",
"^ 	c #111010",
"/ 	c #464746",
"( 	c #9A9A9A",
"_ 	c #606060",
": 	c #414142",
"< 	c #121211",
"[ 	c #2C2A2A",
"} 	c #2C2A2C",
"| 	c #222222",
"1 	c #1B1C1C",
"2 	c #222220",
"3 	c #2C2C2A",
"4 	c #121210",
"5 	c #414141",
"6 	c #969696",
"7 	c #585858",
"8 	c #525251",
"9 	c #0F0F0F",
"0 	c #2A2828",
"a 	c #262525",
"b 	c #1A1A1A",
"c 	c #1A1B1A",
"d 	c #1B1A1A",
"e 	c #1B1B1B",
"f 	c #1A1A19",
"g 	c #100F10",
"h 	c #515151",
"i 	c #939393",
"j 	c #313131",
"k 	c #282828",
"l 	c #1B1B1C",
"m 	c #1C1B1B",
"n 	c #1B1B19",
"o 	c #121212",
"p 	c #0B0B0A",
"q 	c #252323",
"r 	c #222223",
"s 	c #1C1D1C",
"t 	c #1D1C1C",
"u 	c #1C1C1E",
"v 	c #222022",
"w 	c #232323",
"x 	c #8E8E8E",
"y 	c #000000",
"z 	c #070707",
"A 	c #282628",
"B 	c #201F1F",
"C 	c #262625",
"D 	c #080808",
"E 	c #8A8A8A",
"F 	c #070806",
"G 	c #232322",
"H 	c #222020",
"I 	c #222023",
"J 	c #838383",
"K 	c #1C1A1B",
"L 	c #222322",
"M 	c #232223",
"N 	c #1A1B1C",
"O 	c #7C7C7C",
"P 	c #252525",
"Q 	c #252325",
"R 	c #757575",
"S 	c #020202",
"T 	c #161515",
"U 	c #282626",
"V 	c #151515",
"W 	c #5D5D5D",
"X 	c #050505",
"Y 	c #0A0A0A",
"Z 	c #141414",
"` 	c #1E1D1E",
" .	c #1E1E1E",
"..	c #131313",
"+.	c #0D0D0D",
"@.	c #060606",
"#.	c #040404",
"$.	c #4B4B4B",
"%.	c #444444",
"&.	c #2C2C2C",
"*.	c #3D3D3D",
". . . . . . . . . . . . . . . . . + ",
"@ @ @ @ @ @ @ @ @ @ @ @ @ @ @ @ @ # ",
"$ $ $ $ $ $ % & * = = * & % $ $ $ - ",
"; ; ; ; ; > , ' ) ! ~ { ] ^ / ; ; ( ",
"_ _ _ _ : < [ } | * 1 2 [ 3 4 5 _ 6 ",
"7 7 7 8 9 0 a b c b d e f a 0 g h i ",
"7 7 7 j * k l m e n m e e l k * j i ",
"o o o p q r * s t u * * s * v w = x ",
"y y y z A B B B B B B B B B ' C D E ",
"y y y F G v H H H H H H H H I w z J ",
"y y y F K L w G w w w G G w M N D O ",
"y y y z , ' P P P P Q P P P ' , z R ",
"y y y S D T ' k A U k A k | V D S W ",
"y y y y X Y Z ` w A U w  ...Y X y 7 ",
"y y y y y X z +.o V V o +.z X y y h ",
"y y y y y y S @.X #.#.X @.S y y y $.",
"Z Z Z Z Z Z Z Z Z Z Z Z Z Z Z Z Z %.",
"&.&.&.&.&.&.&.&.&.&.&.&.&.&.&.&.&.*."};
