/* XPM */
static char * menu_focused_xpm[] = {
"320 18 197 2",
"  	c #020102",
". 	c #030304",
"+ 	c #040405",
"@ 	c #050505",
"# 	c #070708",
"$ 	c #090909",
"% 	c #0A0A0A",
"& 	c #0B0A0A",
"* 	c #0D0D0D",
"= 	c #100F0F",
"- 	c #111010",
"; 	c #131212",
"> 	c #151414",
", 	c #151515",
"' 	c #161616",
") 	c #181818",
"! 	c #1A1A1B",
"~ 	c #1B1B1C",
"{ 	c #1C1C1D",
"] 	c #1D1D1E",
"^ 	c #202020",
"/ 	c #212121",
"( 	c #222222",
"_ 	c #232323",
": 	c #252625",
"< 	c #272827",
"[ 	c #282928",
"} 	c #292928",
"| 	c #2B2B2B",
"1 	c #2E2D2D",
"2 	c #2E2E2E",
"3 	c #2F2E2E",
"4 	c #313030",
"5 	c #333232",
"6 	c #333333",
"7 	c #343434",
"8 	c #363636",
"9 	c #383838",
"0 	c #393939",
"a 	c #3A3A3A",
"b 	c #3B3B3B",
"c 	c #3D3D3D",
"d 	c #3F3F3F",
"e 	c #404040",
"f 	c #414141",
"g 	c #434343",
"h 	c #454545",
"i 	c #464646",
"j 	c #484848",
"k 	c #4B4A4B",
"l 	c #4C4B4C",
"m 	c #4E4D4E",
"n 	c #505050",
"o 	c #515151",
"p 	c #525252",
"q 	c #535353",
"r 	c #555656",
"s 	c #565757",
"t 	c #575858",
"u 	c #585959",
"v 	c #5B5C5C",
"w 	c #5D5D5D",
"x 	c #5E5E5E",
"y 	c #5F5F5F",
"z 	c #616161",
"A 	c #636363",
"B 	c #646464",
"C 	c #666666",
"D 	c #696969",
"E 	c #6A6A6A",
"F 	c #6B6C6C",
"G 	c #6D6E6E",
"H 	c #6E6F6F",
"I 	c #6F7070",
"J 	c #717171",
"K 	c #737474",
"L 	c #757575",
"M 	c #767676",
"N 	c #777777",
"O 	c #797979",
"P 	c #7B7B7B",
"Q 	c #7C7C7C",
"R 	c #7F7F7F",
"S 	c #818181",
"T 	c #828282",
"U 	c #848484",
"V 	c #868686",
"W 	c #878786",
"X 	c #888887",
"Y 	c #8A8A89",
"Z 	c #8C8C8C",
"` 	c #8D8D8D",
" .	c #8E8E8E",
"..	c #8F8F8F",
"+.	c #929192",
"@.	c #939293",
"#.	c #949394",
"$.	c #959495",
"%.	c #979797",
"&.	c #999999",
"*.	c #9A9A9A",
"=.	c #9D9C9C",
"-.	c #9F9E9E",
";.	c #A09F9F",
">.	c #A2A2A2",
",.	c #A4A4A4",
"'.	c #A4A5A5",
").	c #A5A6A6",
"!.	c #A7A8A7",
"~.	c #AAAAA9",
"{.	c #ABABAA",
"].	c #ACACAB",
"^.	c #ADADAC",
"/.	c #AFAFAF",
"(.	c #B0B1B1",
"_.	c #B1B2B2",
":.	c #B2B3B3",
"<.	c #B4B5B5",
"[.	c #B6B7B7",
"}.	c #B7B8B8",
"|.	c #BABBBB",
"1.	c #BCBDBD",
"2.	c #BDBEBE",
"3.	c #BFC0C0",
"4.	c #C2C2C2",
"5.	c #C3C2C2",
"6.	c #C4C3C3",
"7.	c #C5C4C5",
"8.	c #C8C7C7",
"9.	c #C9C8C9",
"0.	c #CAC9CA",
"a.	c #CBCACB",
"b.	c #CDCCCD",
"c.	c #D0D0CF",
"d.	c #D3D3D2",
"e.	c #D5D6D5",
"f.	c #D8D8D8",
"g.	c #DBDBDB",
"h.	c #DEDEDE",
"i.	c #E1E1E1",
"j.	c #E4E4E4",
"k.	c #E7E7E7",
"l.	c #E9E9E9",
"m.	c #ECECEC",
"n.	c #EFEFEF",
"o.	c #F1F2F1",
"p.	c #F2F4F2",
"q.	c #858585",
"r.	c #838383",
"s.	c #808080",
"t.	c #7E7E7E",
"u.	c #7D7D7D",
"v.	c #7A7A7A",
"w.	c #787878",
"x.	c #757675",
"y.	c #747474",
"z.	c #737373",
"A.	c #727272",
"B.	c #707070",
"C.	c #6F6F6F",
"D.	c #6E6E6E",
"E.	c #6D6D6D",
"F.	c #6C6C6C",
"G.	c #6B6B6B",
"H.	c #686868",
"I.	c #676767",
"J.	c #656565",
"K.	c #636362",
"L.	c #626261",
"M.	c #616060",
"N.	c #606060",
"O.	c #5C5C5C",
"P.	c #5B5B5B",
"Q.	c #5A5A5A",
"R.	c #595959",
"S.	c #585858",
"T.	c #575757",
"U.	c #565656",
"V.	c #555555",
"W.	c #545454",
"X.	c #535252",
"Y.	c #525151",
"Z.	c #515050",
"`.	c #505151",
" +	c #515152",
".+	c #525253",
"++	c #626262",
"@+	c #646465",
"#+	c #666565",
"$+	c #676666",
"%+	c #767776",
"&+	c #777877",
"*+	c #797978",
"=+	c #797A79",
"-+	c #7A7B7A",
";+	c #7A7B7B",
">+	c #878787",
"    . . + @ # $ % & * = = - ; > , ' ) ! ~ { ] ^ / ( _ : < [ } | 1 2 3 4 5 6 7 8 9 0 a b c d e f g h i i j k k l m n o p q r s t u v w x y z A B B C D D E F G H I J K L M N O P Q Q R S S T U V W X Y Z `  ...+.@.#.$.%.&.*.*.=.-.;.;.>.,.'.).!.~.{.].^./.(._.:.<.[.}.}.|.1.2.2.3.4.5.6.7.8.9.0.a.b.c.d.e.f.g.h.i.j.k.l.m.n.o.p.p.o.n.m.l.k.j.i.h.g.f.e.d.c.b.a.0.9.8.7.6.5.4.3.2.2.1.|.}.}.[.<.:._.(./.^.].{.~.!.).'.,.>.;.;.-.=.*.*.&.%.$.#.@.+... .` Z Y X W V U T S S R Q Q P O N M L K J I H G F E D D C B B A z y x w v u t s r q p o n m l k k j i i h g f e d c b a 0 9 8 7 6 5 4 3 2 1 | } [ < : _ ( / ^ ] { ~ ! ) ' , > ; - = = * & % $ # @ + . .     ",
"V V V q.U r.r.T S S s.R R R t.u.u.u.Q Q P P P P v.v.v.O O O w.w.w.N N M M M M x.x.L L y.y.y.y.z.z.A.A.A.A.A.J J B.B.B.B.C.C.D.D.D.D.E.E.E.F.G.G.G.G.G.E E D D D D H.H.I.I.I.I.C C C J.J.J.J.J.B A A A A K.K.L.L.M.M.N.N.N.N.N.y y x x x x w w O.O.O.O.P.P.Q.Q.Q.Q.R.R.R.S.S.S.S.T.T.U.U.V.V.V.V.W.W.q q q q X.X.X.Y.Y.o o Z.Z.n n `.o o o  +.+.+q q q q q W.W.V.V.V.V.U.U.T.T.S.S.S.S.R.R.R.Q.Q.Q.Q.P.P.O.O.O.O.w w x x x x y y N.N.N.N.z z z z ++++++++A A A A @+J.J.J.#+$+$+$+$+I.I.I.I.H.D D D D E E E G.G.G.G.F.E.E.E.E.D.D.D.D.C.B.B.B.B.J J J A.A.A.A.z.y.y.y.y.y.L L L M M M M %+&+&+w.w.*+*+*+=+-+;+;+P P P P Q Q u.u.u.u.R R s.s.S S S r.r.U U V V >+>+",
"V V V q.U r.r.T S S s.R R R t.u.u.u.Q Q P P P P v.v.v.O O O w.w.w.N N M M M M x.x.L L y.y.y.y.z.z.A.A.A.A.A.J J B.B.B.B.C.C.D.D.D.D.E.E.E.F.G.G.G.G.G.E E D D D D H.H.I.I.I.I.C C C J.J.J.J.J.B A A A A K.K.L.L.M.M.N.N.N.N.N.y y x x x x w w O.O.O.O.P.P.Q.Q.Q.Q.R.R.R.S.S.S.S.T.T.U.U.V.V.V.V.W.W.q q q q X.X.X.Y.Y.o o Z.Z.n n `.o o o  +.+.+q q q q q W.W.V.V.V.V.U.U.T.T.S.S.S.S.R.R.R.Q.Q.Q.Q.P.P.O.O.O.O.w w x x x x y y N.N.N.N.z z z z ++++++++A A A A @+J.J.J.#+$+$+$+$+I.I.I.I.H.D D D D E E E G.G.G.G.F.E.E.E.E.D.D.D.D.C.B.B.B.B.J J J A.A.A.A.z.y.y.y.y.y.L L L M M M M %+&+&+w.w.*+*+*+=+-+;+;+P P P P Q Q u.u.u.u.R R s.s.S S S r.r.U U V V >+>+",
"V V V q.U r.r.T S S s.R R R t.u.u.u.Q Q P P P P v.v.v.O O O w.w.w.N N M M M M x.x.L L y.y.y.y.z.z.A.A.A.A.A.J J B.B.B.B.C.C.D.D.D.D.E.E.E.F.G.G.G.G.G.E E D D D D H.H.I.I.I.I.C C C J.J.J.J.J.B A A A A K.K.L.L.M.M.N.N.N.N.N.y y x x x x w w O.O.O.O.P.P.Q.Q.Q.Q.R.R.R.S.S.S.S.T.T.U.U.V.V.V.V.W.W.q q q q X.X.X.Y.Y.o o Z.Z.n n `.o o o  +.+.+q q q q q W.W.V.V.V.V.U.U.T.T.S.S.S.S.R.R.R.Q.Q.Q.Q.P.P.O.O.O.O.w w x x x x y y N.N.N.N.z z z z ++++++++A A A A @+J.J.J.#+$+$+$+$+I.I.I.I.H.D D D D E E E G.G.G.G.F.E.E.E.E.D.D.D.D.C.B.B.B.B.J J J A.A.A.A.z.y.y.y.y.y.L L L M M M M %+&+&+w.w.*+*+*+=+-+;+;+P P P P Q Q u.u.u.u.R R s.s.S S S r.r.U U V V >+>+",
"V V V q.U r.r.T S S s.R R R t.u.u.u.Q Q P P P P v.v.v.O O O w.w.w.N N M M M M x.x.L L y.y.y.y.z.z.A.A.A.A.A.J J B.B.B.B.C.C.D.D.D.D.E.E.E.F.G.G.G.G.G.E E D D D D H.H.I.I.I.I.C C C J.J.J.J.J.B A A A A K.K.L.L.M.M.N.N.N.N.N.y y x x x x w w O.O.O.O.P.P.Q.Q.Q.Q.R.R.R.S.S.S.S.T.T.U.U.V.V.V.V.W.W.q q q q X.X.X.Y.Y.o o Z.Z.n n `.o o o  +.+.+q q q q q W.W.V.V.V.V.U.U.T.T.S.S.S.S.R.R.R.Q.Q.Q.Q.P.P.O.O.O.O.w w x x x x y y N.N.N.N.z z z z ++++++++A A A A @+J.J.J.#+$+$+$+$+I.I.I.I.H.D D D D E E E G.G.G.G.F.E.E.E.E.D.D.D.D.C.B.B.B.B.J J J A.A.A.A.z.y.y.y.y.y.L L L M M M M %+&+&+w.w.*+*+*+=+-+;+;+P P P P Q Q u.u.u.u.R R s.s.S S S r.r.U U V V >+>+",
"V V V q.U r.r.T S S s.R R R t.u.u.u.Q Q P P P P v.v.v.O O O w.w.w.N N M M M M x.x.L L y.y.y.y.z.z.A.A.A.A.A.J J B.B.B.B.C.C.D.D.D.D.E.E.E.F.G.G.G.G.G.E E D D D D H.H.I.I.I.I.C C C J.J.J.J.J.B A A A A K.K.L.L.M.M.N.N.N.N.N.y y x x x x w w O.O.O.O.P.P.Q.Q.Q.Q.R.R.R.S.S.S.S.T.T.U.U.V.V.V.V.W.W.q q q q X.X.X.Y.Y.o o Z.Z.n n `.o o o  +.+.+q q q q q W.W.V.V.V.V.U.U.T.T.S.S.S.S.R.R.R.Q.Q.Q.Q.P.P.O.O.O.O.w w x x x x y y N.N.N.N.z z z z ++++++++A A A A @+J.J.J.#+$+$+$+$+I.I.I.I.H.D D D D E E E G.G.G.G.F.E.E.E.E.D.D.D.D.C.B.B.B.B.J J J A.A.A.A.z.y.y.y.y.y.L L L M M M M %+&+&+w.w.*+*+*+=+-+;+;+P P P P Q Q u.u.u.u.R R s.s.S S S r.r.U U V V >+>+",
"V V V q.U r.r.T S S s.R R R t.u.u.u.Q Q P P P P v.v.v.O O O w.w.w.N N M M M M x.x.L L y.y.y.y.z.z.A.A.A.A.A.J J B.B.B.B.C.C.D.D.D.D.E.E.E.F.G.G.G.G.G.E E D D D D H.H.I.I.I.I.C C C J.J.J.J.J.B A A A A K.K.L.L.M.M.N.N.N.N.N.y y x x x x w w O.O.O.O.P.P.Q.Q.Q.Q.R.R.R.S.S.S.S.T.T.U.U.V.V.V.V.W.W.q q q q X.X.X.Y.Y.o o Z.Z.n n `.o o o  +.+.+q q q q q W.W.V.V.V.V.U.U.T.T.S.S.S.S.R.R.R.Q.Q.Q.Q.P.P.O.O.O.O.w w x x x x y y N.N.N.N.z z z z ++++++++A A A A @+J.J.J.#+$+$+$+$+I.I.I.I.H.D D D D E E E G.G.G.G.F.E.E.E.E.D.D.D.D.C.B.B.B.B.J J J A.A.A.A.z.y.y.y.y.y.L L L M M M M %+&+&+w.w.*+*+*+=+-+;+;+P P P P Q Q u.u.u.u.R R s.s.S S S r.r.U U V V >+>+",
"V V V q.U r.r.T S S s.R R R t.u.u.u.Q Q P P P P v.v.v.O O O w.w.w.N N M M M M x.x.L L y.y.y.y.z.z.A.A.A.A.A.J J B.B.B.B.C.C.D.D.D.D.E.E.E.F.G.G.G.G.G.E E D D D D H.H.I.I.I.I.C C C J.J.J.J.J.B A A A A K.K.L.L.M.M.N.N.N.N.N.y y x x x x w w O.O.O.O.P.P.Q.Q.Q.Q.R.R.R.S.S.S.S.T.T.U.U.V.V.V.V.W.W.q q q q X.X.X.Y.Y.o o Z.Z.n n `.o o o  +.+.+q q q q q W.W.V.V.V.V.U.U.T.T.S.S.S.S.R.R.R.Q.Q.Q.Q.P.P.O.O.O.O.w w x x x x y y N.N.N.N.z z z z ++++++++A A A A @+J.J.J.#+$+$+$+$+I.I.I.I.H.D D D D E E E G.G.G.G.F.E.E.E.E.D.D.D.D.C.B.B.B.B.J J J A.A.A.A.z.y.y.y.y.y.L L L M M M M %+&+&+w.w.*+*+*+=+-+;+;+P P P P Q Q u.u.u.u.R R s.s.S S S r.r.U U V V >+>+",
"V V V q.U r.r.T S S s.R R R t.u.u.u.Q Q P P P P v.v.v.O O O w.w.w.N N M M M M x.x.L L y.y.y.y.z.z.A.A.A.A.A.J J B.B.B.B.C.C.D.D.D.D.E.E.E.F.G.G.G.G.G.E E D D D D H.H.I.I.I.I.C C C J.J.J.J.J.B A A A A K.K.L.L.M.M.N.N.N.N.N.y y x x x x w w O.O.O.O.P.P.Q.Q.Q.Q.R.R.R.S.S.S.S.T.T.U.U.V.V.V.V.W.W.q q q q X.X.X.Y.Y.o o Z.Z.n n `.o o o  +.+.+q q q q q W.W.V.V.V.V.U.U.T.T.S.S.S.S.R.R.R.Q.Q.Q.Q.P.P.O.O.O.O.w w x x x x y y N.N.N.N.z z z z ++++++++A A A A @+J.J.J.#+$+$+$+$+I.I.I.I.H.D D D D E E E G.G.G.G.F.E.E.E.E.D.D.D.D.C.B.B.B.B.J J J A.A.A.A.z.y.y.y.y.y.L L L M M M M %+&+&+w.w.*+*+*+=+-+;+;+P P P P Q Q u.u.u.u.R R s.s.S S S r.r.U U V V >+>+",
"V V V q.U r.r.T S S s.R R R t.u.u.u.Q Q P P P P v.v.v.O O O w.w.w.N N M M M M x.x.L L y.y.y.y.z.z.A.A.A.A.A.J J B.B.B.B.C.C.D.D.D.D.E.E.E.F.G.G.G.G.G.E E D D D D H.H.I.I.I.I.C C C J.J.J.J.J.B A A A A K.K.L.L.M.M.N.N.N.N.N.y y x x x x w w O.O.O.O.P.P.Q.Q.Q.Q.R.R.R.S.S.S.S.T.T.U.U.V.V.V.V.W.W.q q q q X.X.X.Y.Y.o o Z.Z.n n `.o o o  +.+.+q q q q q W.W.V.V.V.V.U.U.T.T.S.S.S.S.R.R.R.Q.Q.Q.Q.P.P.O.O.O.O.w w x x x x y y N.N.N.N.z z z z ++++++++A A A A @+J.J.J.#+$+$+$+$+I.I.I.I.H.D D D D E E E G.G.G.G.F.E.E.E.E.D.D.D.D.C.B.B.B.B.J J J A.A.A.A.z.y.y.y.y.y.L L L M M M M %+&+&+w.w.*+*+*+=+-+;+;+P P P P Q Q u.u.u.u.R R s.s.S S S r.r.U U V V >+>+",
"V V V q.U r.r.T S S s.R R R t.u.u.u.Q Q P P P P v.v.v.O O O w.w.w.N N M M M M x.x.L L y.y.y.y.z.z.A.A.A.A.A.J J B.B.B.B.C.C.D.D.D.D.E.E.E.F.G.G.G.G.G.E E D D D D H.H.I.I.I.I.C C C J.J.J.J.J.B A A A A K.K.L.L.M.M.N.N.N.N.N.y y x x x x w w O.O.O.O.P.P.Q.Q.Q.Q.R.R.R.S.S.S.S.T.T.U.U.V.V.V.V.W.W.q q q q X.X.X.Y.Y.o o Z.Z.n n `.o o o  +.+.+q q q q q W.W.V.V.V.V.U.U.T.T.S.S.S.S.R.R.R.Q.Q.Q.Q.P.P.O.O.O.O.w w x x x x y y N.N.N.N.z z z z ++++++++A A A A @+J.J.J.#+$+$+$+$+I.I.I.I.H.D D D D E E E G.G.G.G.F.E.E.E.E.D.D.D.D.C.B.B.B.B.J J J A.A.A.A.z.y.y.y.y.y.L L L M M M M %+&+&+w.w.*+*+*+=+-+;+;+P P P P Q Q u.u.u.u.R R s.s.S S S r.r.U U V V >+>+",
"V V V q.U r.r.T S S s.R R R t.u.u.u.Q Q P P P P v.v.v.O O O w.w.w.N N M M M M x.x.L L y.y.y.y.z.z.A.A.A.A.A.J J B.B.B.B.C.C.D.D.D.D.E.E.E.F.G.G.G.G.G.E E D D D D H.H.I.I.I.I.C C C J.J.J.J.J.B A A A A K.K.L.L.M.M.N.N.N.N.N.y y x x x x w w O.O.O.O.P.P.Q.Q.Q.Q.R.R.R.S.S.S.S.T.T.U.U.V.V.V.V.W.W.q q q q X.X.X.Y.Y.o o Z.Z.n n `.o o o  +.+.+q q q q q W.W.V.V.V.V.U.U.T.T.S.S.S.S.R.R.R.Q.Q.Q.Q.P.P.O.O.O.O.w w x x x x y y N.N.N.N.z z z z ++++++++A A A A @+J.J.J.#+$+$+$+$+I.I.I.I.H.D D D D E E E G.G.G.G.F.E.E.E.E.D.D.D.D.C.B.B.B.B.J J J A.A.A.A.z.y.y.y.y.y.L L L M M M M %+&+&+w.w.*+*+*+=+-+;+;+P P P P Q Q u.u.u.u.R R s.s.S S S r.r.U U V V >+>+",
"V V V q.U r.r.T S S s.R R R t.u.u.u.Q Q P P P P v.v.v.O O O w.w.w.N N M M M M x.x.L L y.y.y.y.z.z.A.A.A.A.A.J J B.B.B.B.C.C.D.D.D.D.E.E.E.F.G.G.G.G.G.E E D D D D H.H.I.I.I.I.C C C J.J.J.J.J.B A A A A K.K.L.L.M.M.N.N.N.N.N.y y x x x x w w O.O.O.O.P.P.Q.Q.Q.Q.R.R.R.S.S.S.S.T.T.U.U.V.V.V.V.W.W.q q q q X.X.X.Y.Y.o o Z.Z.n n `.o o o  +.+.+q q q q q W.W.V.V.V.V.U.U.T.T.S.S.S.S.R.R.R.Q.Q.Q.Q.P.P.O.O.O.O.w w x x x x y y N.N.N.N.z z z z ++++++++A A A A @+J.J.J.#+$+$+$+$+I.I.I.I.H.D D D D E E E G.G.G.G.F.E.E.E.E.D.D.D.D.C.B.B.B.B.J J J A.A.A.A.z.y.y.y.y.y.L L L M M M M %+&+&+w.w.*+*+*+=+-+;+;+P P P P Q Q u.u.u.u.R R s.s.S S S r.r.U U V V >+>+",
"V V V q.U r.r.T S S s.R R R t.u.u.u.Q Q P P P P v.v.v.O O O w.w.w.N N M M M M x.x.L L y.y.y.y.z.z.A.A.A.A.A.J J B.B.B.B.C.C.D.D.D.D.E.E.E.F.G.G.G.G.G.E E D D D D H.H.I.I.I.I.C C C J.J.J.J.J.B A A A A K.K.L.L.M.M.N.N.N.N.N.y y x x x x w w O.O.O.O.P.P.Q.Q.Q.Q.R.R.R.S.S.S.S.T.T.U.U.V.V.V.V.W.W.q q q q X.X.X.Y.Y.o o Z.Z.n n `.o o o  +.+.+q q q q q W.W.V.V.V.V.U.U.T.T.S.S.S.S.R.R.R.Q.Q.Q.Q.P.P.O.O.O.O.w w x x x x y y N.N.N.N.z z z z ++++++++A A A A @+J.J.J.#+$+$+$+$+I.I.I.I.H.D D D D E E E G.G.G.G.F.E.E.E.E.D.D.D.D.C.B.B.B.B.J J J A.A.A.A.z.y.y.y.y.y.L L L M M M M %+&+&+w.w.*+*+*+=+-+;+;+P P P P Q Q u.u.u.u.R R s.s.S S S r.r.U U V V >+>+",
"V V V q.U r.r.T S S s.R R R t.u.u.u.Q Q P P P P v.v.v.O O O w.w.w.N N M M M M x.x.L L y.y.y.y.z.z.A.A.A.A.A.J J B.B.B.B.C.C.D.D.D.D.E.E.E.F.G.G.G.G.G.E E D D D D H.H.I.I.I.I.C C C J.J.J.J.J.B A A A A K.K.L.L.M.M.N.N.N.N.N.y y x x x x w w O.O.O.O.P.P.Q.Q.Q.Q.R.R.R.S.S.S.S.T.T.U.U.V.V.V.V.W.W.q q q q X.X.X.Y.Y.o o Z.Z.n n `.o o o  +.+.+q q q q q W.W.V.V.V.V.U.U.T.T.S.S.S.S.R.R.R.Q.Q.Q.Q.P.P.O.O.O.O.w w x x x x y y N.N.N.N.z z z z ++++++++A A A A @+J.J.J.#+$+$+$+$+I.I.I.I.H.D D D D E E E G.G.G.G.F.E.E.E.E.D.D.D.D.C.B.B.B.B.J J J A.A.A.A.z.y.y.y.y.y.L L L M M M M %+&+&+w.w.*+*+*+=+-+;+;+P P P P Q Q u.u.u.u.R R s.s.S S S r.r.U U V V >+>+",
"V V V q.U r.r.T S S s.R R R t.u.u.u.Q Q P P P P v.v.v.O O O w.w.w.N N M M M M x.x.L L y.y.y.y.z.z.A.A.A.A.A.J J B.B.B.B.C.C.D.D.D.D.E.E.E.F.G.G.G.G.G.E E D D D D H.H.I.I.I.I.C C C J.J.J.J.J.B A A A A K.K.L.L.M.M.N.N.N.N.N.y y x x x x w w O.O.O.O.P.P.Q.Q.Q.Q.R.R.R.S.S.S.S.T.T.U.U.V.V.V.V.W.W.q q q q X.X.X.Y.Y.o o Z.Z.n n `.o o o  +.+.+q q q q q W.W.V.V.V.V.U.U.T.T.S.S.S.S.R.R.R.Q.Q.Q.Q.P.P.O.O.O.O.w w x x x x y y N.N.N.N.z z z z ++++++++A A A A @+J.J.J.#+$+$+$+$+I.I.I.I.H.D D D D E E E G.G.G.G.F.E.E.E.E.D.D.D.D.C.B.B.B.B.J J J A.A.A.A.z.y.y.y.y.y.L L L M M M M %+&+&+w.w.*+*+*+=+-+;+;+P P P P Q Q u.u.u.u.R R s.s.S S S r.r.U U V V >+>+",
"V V V q.U r.r.T S S s.R R R t.u.u.u.Q Q P P P P v.v.v.O O O w.w.w.N N M M M M x.x.L L y.y.y.y.z.z.A.A.A.A.A.J J B.B.B.B.C.C.D.D.D.D.E.E.E.F.G.G.G.G.G.E E D D D D H.H.I.I.I.I.C C C J.J.J.J.J.B A A A A K.K.L.L.M.M.N.N.N.N.N.y y x x x x w w O.O.O.O.P.P.Q.Q.Q.Q.R.R.R.S.S.S.S.T.T.U.U.V.V.V.V.W.W.q q q q X.X.X.Y.Y.o o Z.Z.n n `.o o o  +.+.+q q q q q W.W.V.V.V.V.U.U.T.T.S.S.S.S.R.R.R.Q.Q.Q.Q.P.P.O.O.O.O.w w x x x x y y N.N.N.N.z z z z ++++++++A A A A @+J.J.J.#+$+$+$+$+I.I.I.I.H.D D D D E E E G.G.G.G.F.E.E.E.E.D.D.D.D.C.B.B.B.B.J J J A.A.A.A.z.y.y.y.y.y.L L L M M M M %+&+&+w.w.*+*+*+=+-+;+;+P P P P Q Q u.u.u.u.R R s.s.S S S r.r.U U V V >+>+",
"    . . + @ # $ % & * = = - ; > , ' ) ! ~ { ] ^ / ( _ : < [ } | 1 2 3 4 5 6 7 8 9 0 a b c d e f g h i i j k k l m n o p q r s t u v w x y z A B B C D D E F G H I J K L M N O P Q Q R S S T U V W X Y Z `  ...+.@.#.$.%.&.*.*.=.-.;.;.>.,.'.).!.~.{.].^./.(._.:.<.[.}.}.|.1.2.2.3.4.5.6.7.8.9.0.a.b.c.d.e.f.g.h.i.j.k.l.m.n.o.p.p.o.n.m.l.k.j.i.h.g.f.e.d.c.b.a.0.9.8.7.6.5.4.3.2.2.1.|.}.}.[.<.:._.(./.^.].{.~.!.).'.,.>.;.;.-.=.*.*.&.%.$.#.@.+... .` Z Y X W V U T S S R Q Q P O N M L K J I H G F E D D C B B A z y x w v u t s r q p o n m l k k j i i h g f e d c b a 0 9 8 7 6 5 4 3 2 1 | } [ < : _ ( / ^ ] { ~ ! ) ' , > ; - = = * & % $ # @ + . .     "};
