/* XPM */
static char * button_unfocus_xpm[] = {
"21 21 27 1",
" 	c None",
".	c #B1B1B1",
"+	c #878787",
"@	c #808080",
"#	c #787878",
"$	c #6F6F6F",
"%	c #666666",
"&	c #5E5E5E",
"*	c #535353",
"=	c #4B4B4B",
"-	c #393939",
";	c #242424",
">	c #0E0E0E",
",	c #404040",
"'	c #2C2C2C",
")	c #B3B3B3",
"!	c #2B2B2B",
"~	c #7E7E7E",
"{	c #1F1F1F",
"]	c #5F5F5F",
"^	c #292929",
"/	c #383838",
"(	c #484848",
"_	c #212121",
":	c #252525",
"<	c #2D2D2D",
"[	c #353535",
".....................",
"+++++++++++++++++++++",
"@@@@@@@@@@@@@@@@@@@@@",
"#####################",
"$$$$$$$$$$$$$$$$$$$$$",
"%%%%%%%%%%%%%%%%%%%%%",
"&&&&&&&&&&&&&&&&&&&&&",
"*********************",
"===-;>>>>>>>>>;-=====",
",,,'>)))))))))>',,,,,",
"!!!'>~~~~~~~~~>'!!!!!",
"{{{;>]]]]]]]]]>;{{{{{",
"{{{;^>>>>>>>>>^;{{{{{",
"{{{{^/(((((((/^{{{{{{",
"{{{{_:<[[[[[<:_{{{{{{",
"{{{{{{{{{{{{{{{{{{{{{",
"{{{{{{{{{{{{{{{{{{{{{",
"{{{{{{{{{{{{{{{{{{{{{",
"{{{{{{{{{{{{{{{{{{{{{",
"{{{{{{{{{{{{{{{{{{{{{",
"{{{{{{{{{{{{{{{{{{{{{"};
