/* XPM */
static char * bar_arrow_xpm[] = {
"18 18 35 1",
" 	c None",
".	c #E3E3E3",
"+	c #E4E4E4",
"@	c #E1E1E1",
"#	c #A7A7A7",
"$	c #DEDEDE",
"%	c #9F9F9F",
"&	c #DADADA",
"*	c #939393",
"=	c #D5D5D5",
"-	c #888888",
";	c #D0D0D0",
">	c #7D7D7D",
",	c #BFBFBF",
"'	c #949494",
")	c #C9C9C9",
"!	c #191919",
"~	c #FFFFFF",
"{	c #727272",
"]	c #C3C3C3",
"^	c #000000",
"/	c #6D6D6D",
"(	c #B9B9B9",
"_	c #5C5C5C",
":	c #AFAFAF",
"<	c #A2A2A2",
"[	c #A6A6A6",
"}	c #848484",
"|	c #7C7C7C",
"1	c #737373",
"2	c #6A6A6A",
"3	c #616161",
"4	c #1D1D1D",
"5	c #575757",
"6	c #3F3F3F",
".+++++++++++++++++",
"@#################",
"$%%%%%%%%%%%%%%%%%",
"&*****************",
"=-----------------",
";>>>>>>>>>>>>>>>>>",
";>>>>>,'>>>>>>>>>>",
")!!!!!~~;{!!!!!!!!",
"]^^^^!~~~~)/^^^^^^",
"(^^^^!~~~~~~_^^^^^",
":^^^^!~~~~<_^^^^^^",
"[^^^^!~~<_^^^^^^^^",
"}^^^^!<_^^^^^^^^^^",
"|^^^^^^^^^^^^^^^^^",
"1^^^^^^^^^^^^^^^^^",
"2^^^^^^^^^^^^^^^^^",
"344444444444444444",
"566666666666666666"};
