/* XPM */
static char * bullet_focused_xpm[] = {
"16 16 4 1",
" 	c None",
".	c #FFFFFF",
"+	c #E1E2CF",
"@	c #DADBC8",
"                ",
"                ",
"                ",
"                ",
"                ",
"                ",
"          .+    ",
"          ..+   ",
"          ...@  ",
"          ..@   ",
"          .@    ",
"                ",
"                ",
"                ",
"                ",
"                "};
