/* XPM */
static char * window_other_unfocused_xpm[] = {
"18 18 100 2",
"  	c None",
". 	c #A1A1A1",
"+ 	c #767676",
"@ 	c #707070",
"# 	c #696969",
"$ 	c #444444",
"% 	c #282828",
"& 	c #191919",
"* 	c #686868",
"= 	c #4D4D4D",
"- 	c #202020",
"; 	c #313131",
"> 	c #3E3D3D",
", 	c #3D3B3D",
"' 	c #3D3D3B",
") 	c #3D3D3D",
"! 	c #313133",
"~ 	c #201F1F",
"{ 	c #4C4D4D",
"] 	c #606060",
"^ 	c #484748",
"/ 	c #232321",
"( 	c #3B3A3A",
"_ 	c #3B3A3B",
": 	c #333333",
"< 	c #2D2D2D",
"[ 	c #2C2D2D",
"} 	c #333331",
"| 	c #3B3B3A",
"1 	c #232320",
"2 	c #474847",
"3 	c #585858",
"4 	c #535353",
"5 	c #1D1D1D",
"6 	c #393838",
"7 	c #363635",
"8 	c #2B2B2B",
"9 	c #2B2C2B",
"0 	c #2C2B2B",
"a 	c #2C2C2C",
"b 	c #2B2B2A",
"c 	c #363636",
"d 	c #3A3838",
"e 	c #1E1D1F",
"f 	c #39393A",
"g 	c #373737",
"h 	c #2C2C2E",
"i 	c #2E2C2C",
"j 	c #2C2C2A",
"k 	c #2D2C2C",
"l 	c #2C2C2D",
"m 	c #373738",
"n 	c #393939",
"o 	c #121212",
"p 	c #171716",
"q 	c #353434",
"r 	c #333334",
"s 	c #2E2E2D",
"t 	c #2D2F2D",
"u 	c #2F2D2E",
"v 	c #2E2E2F",
"w 	c #2E2E2E",
"x 	c #2E2F2E",
"y 	c #333133",
"z 	c #343434",
"A 	c #171717",
"B 	c #000000",
"C 	c #141414",
"D 	c #373637",
"E 	c #313030",
"F 	c #131412",
"G 	c #343433",
"H 	c #333131",
"I 	c #333134",
"J 	c #121412",
"K 	c #2D2B2C",
"L 	c #333433",
"M 	c #343334",
"N 	c #2B2C2D",
"O 	c #131313",
"P 	c #0F0F0F",
"Q 	c #212121",
"R 	c #363535",
"S 	c #363536",
"T 	c #353435",
"U 	c #101010",
"V 	c #040404",
"W 	c #282727",
"X 	c #383737",
"Y 	c #373636",
"Z 	c #272727",
"` 	c #161616",
" .	c #0B0B0B",
"..	c #181818",
"+.	c #252525",
"@.	c #2F2F2F",
"#.	c #1C1C1C",
"$.	c #232323",
"%.	c #0E0E0E",
"&.	c #0D0D0D",
". . . . . . . . . . . . . . . . . . ",
"+ + + + + + + + + + + + + + + + + + ",
"@ @ @ @ @ # $ % & & % $ * @ @ @ @ @ ",
"* * * * = - ; > , ' ) ! ~ { * * * * ",
"] ] ] ^ / ( _ : < [ } ( | 1 2 ] ] ] ",
"3 3 4 5 6 7 8 9 8 0 a b c d e 4 3 3 ",
"3 3 f < g h i a j k a a l m < n 3 3 ",
"o o p q r s t u v w s x w y z A o o ",
"B B C D E E E E E E E E E ; c C B B ",
"B B F G y H H H H H H H H I z C B B ",
"B B J K L z G z z z G G z M N O B B ",
"B B P Q ; R R S S T S R R ; Q U B B ",
"B B V C W ; X D Y X D X : Z ` V B B ",
"B B B  ...+.@.z D Y z @.+... .B B B ",
"B B B B  .C #.$.Z Z $.#.O  .B B B B ",
"B B B B B V %.%.%.P P &.V B B B B B ",
"C C C C C C C C C C C C C C C C C C ",
"a a a a a a a a a a a a a a a a a a "};
