/* XPM */
static char * button_left_xpm[] = {
"16 20 19 1",
" 	c None",
".	c #F7C3A7",
"+	c #000000",
"@	c #ECA680",
"#	c #E69C74",
"$	c #E2946A",
"%	c #DF9065",
"&	c #D9875B",
"*	c #D17D4F",
"=	c #C77243",
"-	c #C0693A",
";	c #B65F30",
">	c #160700",
",	c #140600",
"'	c #120600",
")	c #0E0400",
"!	c #100500",
"~	c #0C0400",
"{	c #743513",
"...............+",
"@@@@@@@@@@@@@@@+",
"###############+",
"$$$$$$$$$$$$$$$+",
"%%%%%%%%%%%%%%%+",
"&&&&&&&&&&&&&&&+",
"***************+",
"===============+",
"---------------+",
";;;;;;;;;;;;;;;+",
">>>>>>>>>>>>>>>+",
">>>>>>>>>>>>>>>+",
",,,,,,,,,,,,,,,+",
"'''''''''''''''+",
"'''''''''''''''+",
")))))))))))))))+",
"!!!!!!!!!!!!!!!+",
"~~~~~~~~~~~~~~~+",
"'''''''''''''''+",
"{{{{{{{{{{{{{{{+"};
