/* XPM */
static char * bar_arrow_xpm[] = {
"18 18 12 1",
" 	c None",
".	c #E3E3E3",
"+	c #E4E4E4",
"@	c #A7A7A7",
"#	c #9F9F9F",
"$	c #939393",
"%	c #888888",
"&	c #7D7D7D",
"*	c #191919",
"=	c #000000",
"-	c #1D1D1D",
";	c #3F3F3F",
".+++++++++++++++++",
"@@@@@@@@@@@@@@@@@@",
"##################",
"$$$$$$$$$$$$$$$$$$",
"%%%%%%%%%%%%%%%%%%",
"&&&&&&&&&&&&&&&&&&",
"&&&&&&&&&&&&&&&&&&",
"******************",
"==================",
"==================",
"==================",
"==================",
"==================",
"==================",
"==================",
"==================",
"------------------",
";;;;;;;;;;;;;;;;;;"};
