/* XPM */
static char * close_pressed_xpm[] = {
"21 21 67 1",
" 	c None",
".	c #D8D8D8",
"+	c #D7D7D7",
"@	c #D6D6D6",
"#	c #D5D5D5",
"$	c #D4D4D4",
"%	c #EBEBEB",
"&	c #EAEAEA",
"*	c #525252",
"=	c #474747",
"-	c #333333",
";	c #4D4D4D",
">	c #2B2B2B",
",	c #474746",
"'	c #464646",
")	c #676767",
"!	c #6B6B6B",
"~	c #272727",
"{	c #404040",
"]	c #404140",
"^	c #444444",
"/	c #737373",
"(	c #787878",
"_	c #777777",
":	c #797979",
"<	c #747474",
"[	c #707070",
"}	c #262626",
"|	c #393A39",
"1	c #3A3A3A",
"2	c #3A3A39",
"3	c #414141",
"4	c #6F6F6F",
"5	c #7D7D7D",
"6	c #252525",
"7	c #333332",
"8	c #3F3F3F",
"9	c #6D6D6D",
"0	c #8D8D8D",
"a	c #636363",
"b	c #313131",
"c	c #3C3C3C",
"d	c #5E5E5E",
"e	c #646464",
"f	c #858585",
"g	c #FFFFFF",
"h	c #595959",
"i	c #565656",
"j	c #5C5C5C",
"k	c #686868",
"l	c #808080",
"m	c #818181",
"n	c #515151",
"o	c #2A2A2A",
"p	c #383838",
"q	c #535353",
"r	c #656565",
"s	c #4E4E4E",
"t	c #303030",
"u	c #585858",
"v	c #7C7C7C",
"w	c #353535",
"x	c #373737",
"y	c #575757",
"z	c #4C4C4C",
"A	c #363636",
"B	c #DCDCDC",
"............+++@@#$##",
"%%%%%%%%%%%%%&&%&&&&#",
"%%%%%%%%%%%%%%%%%%%%#",
"******************=%#",
"---------------;;;=%#",
">>>>>>>>>>>>>>>,=='%#",
")!!!!!!!!!))))~{{]^%#",
"//((_(((:<<[[)}|123%#",
"4<<55555<<4!!)67--8%#",
")9__000__9)aa)6bbbc%#",
"de4fgfgf4edhh)6bbb1%#",
"ijkllgmlkjinn)obbbp%#",
"qhr5g5g5rhqss)tbbbp%#",
"*uee55vaeu*;;)wbbbx%#",
"nyyaaaaaiunzz)pbbbx%#",
"))))))))))))))3bbbA%#",
"===============bbbA%#",
"===============bbbw%#",
"bbbbbbbbbbbbbbbbbbw%#",
"BBBBBBBBBBBBBBBBBBBB#",
"BBBBBBBBBBBBBBBBBBBB#"};
