/* XPM */
static char * hilite_xpm[] = {
"21 21 49 1",
" 	c None",
".	c #525252",
"+	c #4C4C4C",
"@	c #4D4C4C",
"#	c #4C4D4C",
"$	c #4D4D4D",
"%	c #4C4D4D",
"&	c #4D4D4C",
"*	c #4D4C4D",
"=	c #4D4E4D",
"-	c #464545",
";	c #454545",
">	c #464646",
",	c #454646",
"'	c #464746",
")	c #474647",
"!	c #474746",
"~	c #474747",
"{	c #464647",
"]	c #3E3E3F",
"^	c #3F3F3F",
"/	c #3F403F",
"(	c #3F3F40",
"_	c #40403F",
":	c #3F4040",
"<	c #403F40",
"[	c #404040",
"}	c #404140",
"|	c #383838",
"1	c #383938",
"2	c #393938",
"3	c #393839",
"4	c #383939",
"5	c #393939",
"6	c #39393A",
"7	c #393A39",
"8	c #3A3A3A",
"9	c #3A3A39",
"0	c #323232",
"a	c #323131",
"b	c #333232",
"c	c #323233",
"d	c #333233",
"e	c #333332",
"f	c #323332",
"g	c #333333",
"h	c #343333",
"i	c #333434",
"j	c #313131",
".....................",
"+++++@#$%&@**$$$$$=$=",
"--;;>,,,>'>)'>>!~~{!~",
"]^^^^/^^(_:_<<[[[}[[}",
"|12342515555566789698",
"00a0000bc0debfgegghhi",
"jjjjjjjjjjjjjjjjjjjjj",
"jjjjjjjjjjjjjjjjjjjjj",
"jjjjjjjjjjjjjjjjjjjjj",
"jjjjjjjjjjjjjjjjjjjjj",
"jjjjjjjjjjjjjjjjjjjjj",
"jjjjjjjjjjjjjjjjjjjjj",
"jjjjjjjjjjjjjjjjjjjjj",
"jjjjjjjjjjjjjjjjjjjjj",
"jjjjjjjjjjjjjjjjjjjjj",
"jjjjjjjjjjjjjjjjjjjjj",
"jjjjjjjjjjjjjjjjjjjjj",
"jjjjjjjjjjjjjjjjjjjjj",
"jjjjjjjjjjjjjjjjjjjjj",
"jjjjjjjjjjjjjjjjjjjjj",
"jjjjjjjjjjjjjjjjjjjjj"};
