/* XPM */
static char * button_iconify_xpm[] = {
"16 16 20 1",
" 	c None",
".	c #303130",
"+	c #383938",
"@	c #000000",
"#	c #0A0A0A",
"$	c #4E4F4E",
"%	c #262626",
"&	c #292929",
"*	c #303030",
"=	c #353535",
"-	c #313131",
";	c #2B2B2B",
">	c #424242",
",	c #6A6A6A",
"'	c #7E7E7E",
")	c #818181",
"!	c #2C2C2C",
"~	c #575757",
"{	c #FFFFFF",
"]	c #595959",
".+++++++++++++++",
".@##############",
".@$$$$$$$$$$$$$$",
".@$$$$$$$$$$$$$$",
".@$$$$$$$$$$$$$$",
".@$$$$$$$$$$$$$$",
".@$$$$$$$$$$$$$$",
".@$$$$$$$$$$$$$$",
"@@%%&*======-;%%",
"@@%&>,'))))',>&%",
"@@%!~{{{{{{{{]!%",
"@@%&>,'))))',>&%",
"@@%%&*======-;%%",
"@@%%%%%%%%%%%%%%",
"@@@@@@@@@@@@@@@@",
"@@@@@@@@@@@@@@@@"};
