/* XPM */
static char * icon_inactive_xpm[] = {
"20 20 3 1",
" 	c None",
".	c #222222",
"+	c #F6CE09",
"....................",
"....................",
"....................",
"....................",
"....................",
"....................",
"....................",
"....................",
"....................",
"....................",
"....................",
"....................",
"....................",
"....................",
"....................",
"....................",
"....................",
"....................",
"....................",
"++++++++++++++++++++"};
