/* XPM */
static char * window_close_focused_xpm[] = {
"18 18 124 2",
"  	c None",
". 	c #E4E4E4",
"+ 	c #E3E3E3",
"@ 	c #A7A7A7",
"# 	c #E1E1E1",
"$ 	c #9F9F9F",
"% 	c #929292",
"& 	c #555555",
"* 	c #282828",
"= 	c #101010",
"- 	c #DEDEDE",
"; 	c #939393",
"> 	c #646464",
", 	c #181818",
"' 	c #2D2D2D",
") 	c #444141",
"! 	c #413F41",
"~ 	c #41413E",
"{ 	c #424141",
"] 	c #2E2D30",
"^ 	c #181717",
"/ 	c #636463",
"( 	c #DADADA",
"_ 	c #888888",
": 	c #5C5C5D",
"< 	c #1A1A18",
"[ 	c #3E3C3C",
"} 	c #3E3C3E",
"| 	c #303030",
"1 	c #272727",
"2 	c #262727",
"3 	c #30302E",
"4 	c #3E3E3C",
"5 	c #1A1917",
"6 	c #5C5C5C",
"7 	c #D5D5D5",
"8 	c #7D7D7D",
"9 	c #747473",
"0 	c #151515",
"a 	c #3B3939",
"b 	c #363534",
"c 	c #252525",
"d 	c #252625",
"e 	c #262525",
"f 	c #262626",
"g 	c #252524",
"h 	c #363535",
"i 	c #3C3939",
"j 	c #161517",
"k 	c #737373",
"l 	c #D0D0D0",
"m 	c #454546",
"n 	c #383838",
"o 	c #262628",
"p 	c #282626",
"q 	c #262624",
"r 	c #272626",
"s 	c #262627",
"t 	c #383839",
"u 	c #454545",
"v 	c #191919",
"w 	c #0F0F0E",
"x 	c #343232",
"y 	c #303031",
"z 	c #282827",
"A 	c #272927",
"B 	c #292728",
"C 	c #28282B",
"D 	c #282928",
"E 	c #302E30",
"F 	c #323232",
"G 	c #0F0F0F",
"H 	c #C9C9C9",
"I 	c #000000",
"J 	c #0A0A0A",
"K 	c #383638",
"L 	c #2D2C2C",
"M 	c #363635",
"N 	c #0B0B0B",
"O 	c #C3C3C3",
"P 	c #0A0B09",
"Q 	c #313130",
"R 	c #302E2E",
"S 	c #302E31",
"T 	c #323131",
"U 	c #B9B9B9",
"V 	c #272526",
"W 	c #303130",
"X 	c #313132",
"Y 	c #323132",
"Z 	c #313131",
"` 	c #323032",
" .	c #252627",
"..	c #AFAFAF",
"+.	c #2E2D2D",
"@.	c #353434",
"#.	c #353435",
"$.	c #343234",
"%.	c #A6A6A6",
"&.	c #030303",
"*.	c #1F1E1E",
"=.	c #2E2D2E",
"-.	c #393838",
";.	c #383636",
">.	c #1E1E1E",
",.	c #0C0C0C",
"'.	c #848484",
").	c #070707",
"!.	c #0E0E0E",
"~.	c #1C1C1C",
"{.	c #2B292B",
"].	c #2B2B2B",
"^.	c #1B1B1B",
"/.	c #7C7C7C",
"(.	c #121212",
"_.	c #1A1A1A",
":.	c #090909",
"<.	c #060606",
"[.	c #080808",
"}.	c #6A6A6A",
"|.	c #1D1D1D",
"1.	c #616161",
"2.	c #3F3F3F",
"3.	c #575757",
". . . . . . . . . . . . . . . . . + ",
"@ @ @ @ @ @ @ @ @ @ @ @ @ @ @ @ @ # ",
"$ $ $ $ $ $ % & * = = * & % $ $ $ - ",
"; ; ; ; ; > , ' ) ! ~ { ] ^ / ; ; ( ",
"_ _ _ _ : < [ } | 1 2 3 [ 4 5 6 _ 7 ",
"8 8 8 9 0 a b c d c e f g h i j k l ",
"8 8 8 m 1 n o p f q r f f s t 1 u l ",
"v v v w x y z A B C * z D * E F G H ",
"I I I J K L L L L L L L L L ' M N O ",
"I I I P Q E R R R R R R R R S T J U ",
"I I I P V W T Q F X Y Q Q Z `  .N ..",
"I I I J , +.@.@.#.#.$.#.@.@.' , J %.",
"I I I &.N *.=.-.K ;.-.K -.| >.,.&.'.",
"I I I I ).!.~.{.T K ;.Z ].^.!.).I /.",
"I I I I I ).J (._.>.>._.(.J ).I I k ",
"I I I I I I &.:.).<.<.).[.&.I I I }.",
"|.|.|.|.|.|.|.|.|.|.|.|.|.|.|.|.|.1.",
"2.2.2.2.2.2.2.2.2.2.2.2.2.2.2.2.2.3."};
