/* XPM */
static char * close_pressed_xpm[] = {
"22 22 94 2",
"  	c None",
". 	c #404040",
"+ 	c #272727",
"@ 	c #262626",
"# 	c #252525",
"$ 	c #242424",
"% 	c #202020",
"& 	c #1B1B1B",
"* 	c #181818",
"= 	c #161616",
"- 	c #151515",
"; 	c #171717",
"> 	c #191919",
", 	c #1C1C1C",
"' 	c #1D1D1D",
") 	c #212121",
"! 	c #121212",
"~ 	c #090909",
"{ 	c #050505",
"] 	c #040404",
"^ 	c #060606",
"/ 	c #0A0A0A",
"( 	c #0C0C0C",
"_ 	c #141414",
": 	c #101010",
"< 	c #616161",
"[ 	c #CBC8CB",
"} 	c #F4E0EF",
"| 	c #FAE2F4",
"1 	c #FAE3F4",
"2 	c #FAE6F5",
"3 	c #E7E3E6",
"4 	c #8C8C8C",
"5 	c #515151",
"6 	c #A3A3A3",
"7 	c #131313",
"8 	c #5A5A5A",
"9 	c #F4F0F3",
"0 	c #F9D5F0",
"a 	c #F389D9",
"b 	c #F277D4",
"c 	c #F489DA",
"d 	c #EBE7EA",
"e 	c #585858",
"f 	c #C9C9C9",
"g 	c #FDFDFD",
"h 	c #505050",
"i 	c #E3E3E3",
"j 	c #F3DFEF",
"k 	c #F061CD",
"l 	c #F05CCC",
"m 	c #F060CD",
"n 	c #F388D9",
"o 	c #F7E2F2",
"p 	c #DEDEDE",
"q 	c #FEFEFE",
"r 	c #757575",
"s 	c #1A1A1A",
"t 	c #979797",
"u 	c #FFFFFF",
"v 	c #FDE9F9",
"w 	c #F15DCD",
"x 	c #F161CE",
"y 	c #FCE7F8",
"z 	c #898989",
"A 	c #0E0E0E",
"B 	c #0D0D0D",
"C 	c #020202",
"D 	c #9C9C9C",
"E 	c #A9A9A9",
"F 	c #C3C0C3",
"G 	c #FAD5F1",
"H 	c #F377D5",
"I 	c #F589DB",
"J 	c #FDF9FC",
"K 	c #989898",
"L 	c #030303",
"M 	c #070707",
"N 	c #363636",
"O 	c #A9A7A9",
"P 	c #FDE7F7",
"Q 	c #FBE2F5",
"R 	c #FBE3F5",
"S 	c #FBE6F6",
"T 	c #F5F1F4",
"U 	c #8F8F8F",
"V 	c #080808",
"W 	c #646464",
"X 	c #6F6F6F",
"Y 	c #7D7D7D",
"Z 	c #7C7C7C",
"` 	c #555555",
" .	c #0B0B0B",
"..	c #010101",
". . . . . . . . . . . . . . . . . . . . . . ",
"+ + + + + + + + + + + + + + + + + + + + + + ",
"+ + + + + + + + + + + + + + + + + + + + + + ",
"+ + + + + + + + + + + + + + + + + + + + + + ",
"+ + + + + + + + + + + + + + + + + + + + + + ",
"+ + + + + + + @ # $ $ $ $ $ $ # @ @ @ + + + ",
"+ + + + + # % & * = = - = = ; > & , ' ) + + ",
"+ + + $ ' ! ~ { ] ] ] ] ] ] ^ ~ / ( _ _ $ + ",
"+ + + ' : ] < [ } | 1 1 2 3 4 ] 5 6 ~ ~ ' + ",
"+ + + 7 { 8 9 0 a b b b c 0 d e f g { { 7 + ",
"+ + + / h i j c k l l l m n o p q r { { / + ",
"s s s ] t u v c k l w w x n y u z A ^ ^ ] s ",
"B B B C D E F G c H H H I G J K * L M M C B ",
"B B B ] 5 N C O P Q R R S T U * L M V V B B ",
"B B B V ~ { { % e W X Y Z ` > L V !  . .B B ",
"B B B  ./ / ~ ^ M C ....C L { ~  .( B B B B ",
"B B B B B B ( ( / ~ V V V V ~ / ( B B B B B ",
"B B B B B B B B B B B B B B B B B B B B B B ",
"B B B B B B B B B B B B B B B B B B B B B B ",
"B B B B B B B B B B B B B B B B B B B B B B ",
"B B B B B B B B B B B B B B B B B B B B B B ",
". . . . . . . . . . . . . . . . . . . . . . "};
