/* XPM */
static char * close_xpm[] = {
"22 22 91 1",
" 	c None",
".	c #404040",
"+	c #272727",
"@	c #262626",
"#	c #252525",
"$	c #242424",
"%	c #202020",
"&	c #1B1B1B",
"*	c #181818",
"=	c #161616",
"-	c #151515",
";	c #171717",
">	c #191919",
",	c #1C1C1C",
"'	c #1D1D1D",
")	c #212121",
"!	c #121212",
"~	c #090909",
"{	c #050505",
"]	c #040404",
"^	c #060606",
"/	c #0A0A0A",
"(	c #0C0C0C",
"_	c #141414",
":	c #101010",
"<	c #616161",
"[	c #CBCBCB",
"}	c #F6F6F6",
"|	c #FFFFFF",
"1	c #E8E8E8",
"2	c #8C8C8C",
"3	c #515151",
"4	c #A3A3A3",
"5	c #131313",
"6	c #5A5A5A",
"7	c #F4F4F4",
"8	c #BEBEBE",
"9	c #9E9E9E",
"0	c #A0A0A0",
"a	c #969696",
"b	c #A9A9A9",
"c	c #E9E9E9",
"d	c #ECECEC",
"e	c #585858",
"f	c #C9C9C9",
"g	c #FDFDFD",
"h	c #505050",
"i	c #E3E3E3",
"j	c #717171",
"k	c #121112",
"l	c #090408",
"m	c #080307",
"n	c #030103",
"o	c #000000",
"p	c #777777",
"q	c #F9F9F9",
"r	c #DEDEDE",
"s	c #FEFEFE",
"t	c #757575",
"u	c #1A1A1A",
"v	c #979797",
"w	c #7A7A7A",
"x	c #060305",
"y	c #0E050C",
"z	c #0C040A",
"A	c #080407",
"B	c #B4B4B4",
"C	c #898989",
"D	c #0E0E0E",
"E	c #0D0D0D",
"F	c #020202",
"G	c #9C9C9C",
"H	c #111111",
"I	c #3C3C3C",
"J	c #9F9F9F",
"K	c #C3C3C3",
"L	c #CACACA",
"M	c #E4E4E4",
"N	c #989898",
"O	c #030303",
"P	c #070707",
"Q	c #363636",
"R	c #ADADAD",
"S	c #8F8F8F",
"T	c #080808",
"U	c #6F6F6F",
"V	c #7D7D7D",
"W	c #7C7C7C",
"X	c #555555",
"Y	c #0B0B0B",
"Z	c #010101",
"......................",
"++++++++++++++++++++++",
"++++++++++++++++++++++",
"++++++++++++++++++++++",
"++++++++++++++++++++++",
"+++++++@#$$$$$$#@@@+++",
"+++++#%&*==-==;>&,')++",
"+++$'!~{]]]]]]^~/(__$+",
"+++':]<[}||||12]34~~'+",
"+++5{67|890abcdefg{{5+",
"+++/hi7jklmnopqrst{{/+",
"uuu]v|wxyzA!.B||CD^^]u",
"EEEFGb-HIJKLM||N*OPPFE",
"EEE]3QPPR||||}S*OPTTEE",
"EEET~{{PPPUVWX>OT!YYEE",
"EEEY//~^PFZZFO{~Y(EEEE",
"EEEEEE((/~TTTT~/(EEEEE",
"EEEEEEEEEEEEEEEEEEEEEE",
"EEEEEEEEEEEEEEEEEEEEEE",
"EEEEEEEEEEEEEEEEEEEEEE",
"EEEEEEEEEEEEEEEEEEEEEE",
"......................"};
