/* XPM */
static char * icon_xpm[] = {
"20 20 3 1",
" 	c None",
".	c #222222",
"+	c #D5146B",
"....................",
"....................",
"....................",
"....................",
"....................",
"....................",
"....................",
"....................",
"....................",
"....................",
"....................",
"....................",
"....................",
"....................",
"....................",
"....................",
"....................",
"....................",
"....................",
"++++++++++++++++++++"};
