/* XPM */
static char * toolbar_focused_xpm[] = {
"10 18 4 1",
" 	c None",
".	c #AFC81C",
"+	c #FFFFFF",
"@	c #F9F9F9",
"..........",
"..........",
"..........",
"++++++++++",
"++++++++++",
"++++++++++",
"++++++++++",
"++@@++++++",
"++@@++++++",
"++++++++++",
"++++++++++",
"++++++++++",
"++++++++++",
"++++++++++",
"++++++++++",
"++++++++++",
"++++++++++",
"++++++++++"};
