/* XPM */
static char * window_stick_unfocused_xpm[] = {
"18 18 56 1",
" 	g None",
".	g #A0A0A0",
"+	g #A1A1A1",
"@	g #767676",
"#	g #707070",
"$	g #696969",
"%	g #444444",
"&	g #282828",
"*	g #191919",
"=	g #686868",
"-	g #4D4D4D",
";	g #202020",
">	g #313131",
",	g #3D3D3D",
"'	g #3C3C3C",
")	g #1F1F1F",
"!	g #606060",
"~	g #474747",
"{	g #232323",
"]	g #3A3A3A",
"^	g #333333",
"/	g #2D2D2D",
"(	g #3B3B3B",
"_	g #484848",
":	g #585858",
"<	g #535353",
"[	g #1D1D1D",
"}	g #383838",
"|	g #363636",
"1	g #2B2B2B",
"2	g #2C2C2C",
"3	g #393939",
"4	g #373737",
"5	g #121212",
"6	g #171717",
"7	g #343434",
"8	g #2E2E2E",
"9	g #2F2F2F",
"0	g #323232",
"a	g #000000",
"b	g #141414",
"c	g #303030",
"d	g #131313",
"e	g #0F0F0F",
"f	g #212121",
"g	g #353535",
"h	g #101010",
"i	g #040404",
"j	g #272727",
"k	g #161616",
"l	g #0B0B0B",
"m	g #181818",
"n	g #252525",
"o	g #1C1C1C",
"p	g #0E0E0E",
"q	g #0D0D0D",
".+++++++++++++++++",
"@@@@@@@@@@@@@@@@@@",
"#####$%&**&%=#####",
"====-;>,',,>)-====",
"!!!~{]]^//^]({_!!!",
"::<[}|121121|}[<::",
"::3/4222222224/3::",
"5567^88/8889807655",
"aab|ccccccccc>|baa",
"aab70>>>>>>>>07baa",
"aad1777777777^2daa",
"aaef>gggg7ggg>fhaa",
"aaibj>4||4|4^jkiaa",
"aaalmn97||79nmlaaa",
"aaaalbo{jj{odlaaaa",
"aaaaaipppeeqiaaaaa",
"bbbbbbbbbbbbbbbbbb",
"222222222222222222"};
