/* XPM */
static char * window_close_focused_xpm[] = {
"18 18 66 1",
" 	g None",
".	g #E4E4E4",
"+	g #E3E3E3",
"@	g #A7A7A7",
"#	g #9F9F9F",
"$	g #929292",
"%	g #555555",
"&	g #282828",
"*	g #101010",
"=	g #939393",
"-	g #646464",
";	g #181818",
">	g #2D2D2D",
",	g #424242",
"'	g #404040",
")	g #414141",
"!	g #171717",
"~	g #888888",
"{	g #5C5C5C",
"]	g #1A1A1A",
"^	g #3C3C3C",
"/	g #3D3D3D",
"(	g #303030",
"_	g #272727",
":	g #3E3E3E",
"<	g #191919",
"[	g #7D7D7D",
"}	g #747474",
"|	g #151515",
"1	g #393939",
"2	g #353535",
"3	g #252525",
"4	g #262626",
"5	g #3A3A3A",
"6	g #737373",
"7	g #454545",
"8	g #383838",
"9	g #0F0F0F",
"0	g #323232",
"a	g #292929",
"b	g #2F2F2F",
"c	g #000000",
"d	g #0A0A0A",
"e	g #373737",
"f	g #2C2C2C",
"g	g #363636",
"h	g #0B0B0B",
"i	g #313131",
"j	g #2E2E2E",
"k	g #343434",
"l	g #333333",
"m	g #030303",
"n	g #1E1E1E",
"o	g #0C0C0C",
"p	g #070707",
"q	g #0E0E0E",
"r	g #1C1C1C",
"s	g #2A2A2A",
"t	g #2B2B2B",
"u	g #1B1B1B",
"v	g #121212",
"w	g #090909",
"x	g #060606",
"y	g #080808",
"z	g #1D1D1D",
"A	g #3F3F3F",
".................+",
"@@@@@@@@@@@@@@@@@@",
"#####$%&**&%$#####",
"====-;>,'))>!-====",
"~~~{]^/(__(^:<{~~~",
"[[}|1234334325|6[[",
"[[7_8444444448_7[[",
"<<90(&&_&&&a&b09<<",
"ccdefffffffff>ghcc",
"cchibjjjjjjjjbidcc",
"cch3iii0iiiiii4hcc",
"ccd;>kkkklkkk>;dcc",
"ccmhn>8eg8e8(nomcc",
"cccpqrsiegituqpccc",
"ccccpdv]nn]vdpcccc",
"cccccmwpxxpymccccc",
"zzzzzzzzzzzzzzzzzz",
"AAAAAAAAAAAAAAAAAA"};
