/* XPM */
static char * bullet_selected_xpm[] = {
"14 14 21 1",
" 	c None",
".	c #A0E7EB",
"+	c #86EEF5",
"@	c #8BEDF3",
"#	c #AFE4E7",
"$	c #BBF6F9",
"%	c #FCFFFF",
"&	c #DEFBFD",
"*	c #87EEF5",
"=	c #9DE7EC",
"-	c #D9FAFC",
";	c #FFFFFF",
">	c #A2F3F7",
",	c #AFE2E5",
"'	c #BAF6F9",
")	c #F8FEFE",
"!	c #D8FAFC",
"~	c #88EEF3",
"{	c #A4E4E8",
"]	c #8AF0F6",
"^	c #54E6EF",
"              ",
"              ",
"              ",
"              ",
"     .+@      ",
"    #$%&*     ",
"    =-;;>     ",
"    ,')!~     ",
"     {]^      ",
"              ",
"              ",
"              ",
"              ",
"              "};
