/* XPM */
static char * close_focus_xpm[] = {
"21 21 51 1",
" 	c None",
".	c #D8D8D8",
"+	c #D7D7D7",
"@	c #D6D6D6",
"#	c #D5D5D5",
"$	c #D4D4D4",
"%	c #EBEBEB",
"&	c #EAEAEA",
"*	c #525252",
"=	c #474747",
"-	c #333333",
";	c #4D4D4D",
">	c #2B2B2B",
",	c #474746",
"'	c #464646",
")	c #676767",
"!	c #272727",
"~	c #404040",
"{	c #404140",
"]	c #444444",
"^	c #6F6F6F",
"/	c #6E6E6E",
"(	c #707070",
"_	c #262626",
":	c #393A39",
"<	c #3A3A3A",
"[	c #3A3A39",
"}	c #414141",
"|	c #6B6B6B",
"1	c #6A6A6A",
"2	c #252525",
"3	c #333332",
"4	c #3F3F3F",
"5	c #636363",
"6	c #313131",
"7	c #3C3C3C",
"8	c #595959",
"9	c #B3B3B3",
"0	c #515151",
"a	c #535353",
"b	c #2A2A2A",
"c	c #383838",
"d	c #4E4E4E",
"e	c #303030",
"f	c #4C4C4C",
"g	c #353535",
"h	c #373737",
"i	c #4B4B4B",
"j	c #4A4A4A",
"k	c #363636",
"l	c #DCDCDC",
"............+++@@#$##",
"%%%%%%%%%%%%%&&%&&&&#",
"%%%%%%%%%%%%%%%%%%%%#",
"******************=%#",
"---------------;;;=%#",
">>>>>>>>>>>>>>>,=='%#",
"))))))))))))))!~~{]%#",
"^^^^/^^^((((()_:<[}%#",
"|||11111|||||)23--4%#",
"5555555555555)26667%#",
"8888989888888)2666<%#",
"0000*9a000000)b666c%#",
"dddd9d9dddddd)e666c%#",
";;;;;;ff;;;;;)g666h%#",
"fffffffij;fff)c666h%#",
"))))))))))))))}666k%#",
"===============666k%#",
"===============666g%#",
"666666666666666666g%#",
"llllllllllllllllllll#",
"llllllllllllllllllll#"};
