/* XPM */
static char * stick_xpm[] = {
"21 21 55 1",
" 	c None",
".	c #D8D8D8",
"+	c #D6D6D6",
"@	c #D7D7D7",
"#	c #EAEAEA",
"$	c #EBEBEB",
"%	c #464646",
"&	c #525252",
"*	c #474747",
"=	c #4C4C4C",
"-	c #4D4C4C",
";	c #4C4D4C",
">	c #4D4D4D",
",	c #4C4D4D",
"'	c #4D4D4C",
")	c #4D4C4D",
"!	c #464545",
"~	c #454545",
"{	c #454646",
"]	c #464746",
"^	c #474647",
"/	c #474746",
"(	c #444444",
"_	c #3F3F3F",
":	c #3F403F",
"<	c #3F3F40",
"[	c #40403F",
"}	c #3F4040",
"|	c #403F40",
"1	c #404040",
"2	c #414141",
"3	c #383938",
"4	c #393938",
"5	c #393839",
"6	c #383939",
"7	c #393939",
"8	c #39393A",
"9	c #393A39",
"0	c #323232",
"a	c #323131",
"b	c #333232",
"c	c #323233",
"d	c #333233",
"e	c #333332",
"f	c #323332",
"g	c #333333",
"h	c #3C3C3C",
"i	c #313131",
"j	c #3A3A3A",
"k	c #9A9A9A",
"l	c #383838",
"m	c #373737",
"n	c #363636",
"o	c #353535",
"p	c #DCDCDC",
"....++.@.............",
".##$$###$$$$$$$$$$$$$",
".##$$$$$$$$$$$$$$$$$$",
".$%&&&&&&&&&&&&&&&&&&",
".$*=======-;>,'-))>>>",
".$%!~~!~~%{{{%]%^]%%/",
".$(_______:__<[}[||11",
".$2345345647377777889",
".$_0a00a0000bc0debfge",
".$hiiiiiiiiiiiiiiiiii",
".$jiiiiiikkkiiiiiiiii",
".$liiiiiikikiiiiiiiii",
".$liiiiiikkkiiiiiiiii",
".$miiiiiiiiiiiiiiiiii",
".$miiiiiiiiiiiiiiiiii",
".$niiiiiiiiiiiiiiiiii",
".$niiiiiiiiiiiiiiiiii",
".$oiiiiiiiiiiiiiiiiii",
".$oiiiiiiiiiiiiiiiiii",
".pppppppppppppppppppp",
".pppppppppppppppppppp"};
