/* XPM */
static char * title_xpm[] = {
"21 21 54 1",
" 	c None",
".	c #D8D8D8",
"+	c #D9D9D9",
"@	c #EBEBEB",
"#	c #EAEAEA",
"$	c #525252",
"%	c #4C4C4C",
"&	c #4D4C4C",
"*	c #4C4D4C",
"=	c #4D4D4D",
"-	c #4C4D4D",
";	c #4D4D4C",
">	c #4D4C4D",
",	c #4D4E4D",
"'	c #464545",
")	c #454545",
"!	c #464646",
"~	c #454646",
"{	c #464746",
"]	c #474647",
"^	c #474746",
"/	c #474747",
"(	c #464647",
"_	c #3E3E3F",
":	c #3F3F3F",
"<	c #3F403F",
"[	c #3F3F40",
"}	c #40403F",
"|	c #3F4040",
"1	c #403F40",
"2	c #404040",
"3	c #404140",
"4	c #383838",
"5	c #383938",
"6	c #393938",
"7	c #393839",
"8	c #383939",
"9	c #393939",
"0	c #39393A",
"a	c #393A39",
"b	c #3A3A3A",
"c	c #3A3A39",
"d	c #323232",
"e	c #323131",
"f	c #333232",
"g	c #323233",
"h	c #333233",
"i	c #333332",
"j	c #323332",
"k	c #333333",
"l	c #343333",
"m	c #333434",
"n	c #313131",
"o	c #DDDDDD",
".+.......+...........",
"@@@@@@@@@@@@@@@@@@@@#",
"@@@@@@@@@@@@@@@@@@@@@",
"$$$$$$$$$$$$$$$$$$$$$",
"%%%%%&*=-;&>>=====,=,",
"''))!~~~!{!]{!!^//(^/",
"_::::<::[}|}112223223",
"456786959999900abc0cb",
"ddeddddfgdhifjkikkllm",
"nnnnnnnnnnnnnnnnnnnnn",
"nnnnnnnnnnnnnnnnnnnnn",
"nnnnnnnnnnnnnnnnnnnnn",
"nnnnnnnnnnnnnnnnnnnnn",
"nnnnnnnnnnnnnnnnnnnnn",
"nnnnnnnnnnnnnnnnnnnnn",
"nnnnnnnnnnnnnnnnnnnnn",
"nnnnnnnnnnnnnnnnnnnnn",
"nnnnnnnnnnnnnnnnnnnnn",
"nnnnnnnnnnnnnnnnnnnnn",
"ooooooooooooooooooooo",
"ooooooooooooooooooooo"};
