/* XPM */
static char * menu_back_xpm[] = {
"320 1 107 2",
"  	c #4F4F4F",
". 	c #4E4E4E",
"+ 	c #4D4D4D",
"@ 	c #4C4C4C",
"# 	c #4B4B4B",
"$ 	c #4A4A4A",
"% 	c #494949",
"& 	c #484848",
"* 	c #474747",
"= 	c #464646",
"- 	c #454545",
"; 	c #444444",
"> 	c #434343",
", 	c #424242",
"' 	c #414141",
") 	c #404040",
"! 	c #3F3F3F",
"~ 	c #3E3E3E",
"{ 	c #3D3D3D",
"] 	c #3C3C3C",
"^ 	c #3B3B3B",
"/ 	c #3A3A3A",
"( 	c #393939",
"_ 	c #383838",
": 	c #373837",
"< 	c #363736",
"[ 	c #363636",
"} 	c #353535",
"| 	c #343434",
"1 	c #333333",
"2 	c #323232",
"3 	c #313131",
"4 	c #303030",
"5 	c #2F2F2F",
"6 	c #2E2E2E",
"7 	c #2D2D2D",
"8 	c #2C2C2C",
"9 	c #2B2B2B",
"0 	c #2A2A2A",
"a 	c #292929",
"b 	c #282828",
"c 	c #272727",
"d 	c #262626",
"e 	c #252525",
"f 	c #242424",
"g 	c #232323",
"h 	c #222222",
"i 	c #212121",
"j 	c #202020",
"k 	c #1F1F1F",
"l 	c #1E1E1E",
"m 	c #1D1D1D",
"n 	c #1C1C1C",
"o 	c #1B1B1B",
"p 	c #1B1B1A",
"q 	c #1A1A19",
"r 	c #191818",
"s 	c #181818",
"t 	c #181717",
"u 	c #171717",
"v 	c #161616",
"w 	c #151515",
"x 	c #141414",
"y 	c #131313",
"z 	c #121212",
"A 	c #111111",
"B 	c #101010",
"C 	c #0F0F0F",
"D 	c #0E0E0E",
"E 	c #0D0D0D",
"F 	c #0C0C0C",
"G 	c #0B0B0B",
"H 	c #0A0A0A",
"I 	c #090909",
"J 	c #080808",
"K 	c #070707",
"L 	c #060606",
"M 	c #050505",
"N 	c #040404",
"O 	c #040303",
"P 	c #030202",
"Q 	c #020101",
"R 	c #010000",
"S 	c #000000",
"T 	c #000101",
"U 	c #010202",
"V 	c #020202",
"W 	c #020203",
"X 	c #030304",
"Y 	c #191919",
"Z 	c #1A1A1A",
"` 	c #1D1D1E",
" .	c #1E1E1F",
"..	c #201F1F",
"+.	c #212020",
"@.	c #222121",
"#.	c #373737",
"$.	c #373738",
"%.	c #383938",
"&.	c #393A39",
"*.	c #3B3B3A",
"=.	c #3C3C3B",
"-.	c #3C3D3C",
";.	c #3D3E3D",
">.	c #3D3E3E",
",.	c #3E3F3F",
"'.	c #505050",
"  . . + @ # $ % & * = - - ; > , ' ' ) ) ! ! ~ ~ { { { ] ] ] ^ ^ / ( ( _ _ : : < < [ [ } } | | 1 1 2 2 2 3 3 4 4 5 5 6 6 7 7 8 8 9 9 0 0 0 a b b b c c d d e e f f g g h h i i j j j k k k k l m n n o o p p q q r r s t u u u v v w w x x y y z z A A B B C C D D E E E F F G G H H I I J J K K L L M M M N O O O P P Q Q R R S S T U U V W X X N N M M M L L K K J J I I H H G G F F E E E D C C C B B A A z z y y x x w w v v u u u s Y Y Y Y Z Z Z Z o n n n `  . . ...+.+.+.+.@.h h h g f f f e d d d c b b b a 0 0 0 0 9 8 8 8 7 6 6 6 5 4 4 4 3 2 2 2 1 | | | | } [ [ [ #.$.$._ %.&.&./ *.=.=.=.-.;.>.>.~ ,.! ! ) ) ' ' ' , ; ; = = * & & $ $ @ @ . . '.'."};
