/* XPM */
static char * stick_xpm[] = {
"20 20 5 1",
" 	c None",
".	c #222222",
"+	c #FFFFFF",
"@	c #000000",
"#	c #D5146B",
"....................",
"....................",
"....................",
"....................",
"....................",
"....................",
"....................",
"....................",
"........++++........",
"........++++........",
"........++++@.......",
"........++++@.......",
".........@@@@.......",
".........@@@@.......",
"....................",
"....................",
"....................",
"....................",
"....................",
"####################"};
