/* XPM */
static char * close_unfocus_xpm[] = {
"21 21 15 1",
" 	c None",
".	c #939393",
"+	c #464646",
"@	c #424242",
"#	c #434343",
"$	c #3E3E3E",
"%	c #3F3F3F",
"&	c #3A3A3A",
"*	c #3B3B3B",
"=	c #373737",
"-	c #383838",
";	c #343434",
">	c #353535",
",	c #333333",
"'	c #747474",
".....................",
"+++++++++++++++++++++",
"@###@@###@@###@@###@@",
"$%$$$$%$$$$%$$$$%$$$$",
"&****&****&****&****&",
"=---==---==---==---==",
";>;;;;>;;;;>;;;;>;;;;",
",,,,,,,,'','',,,,,,,,",
",,,,,,,,'','',,,,,,,,",
",,,,,,,,,,',,,,,,,,,,",
",,,,,,,,'','',,,,,,,,",
",,,,,,,,'','',,,,,,,,",
",,,,,,,,,,,,,,,,,,,,,",
",,,,,,,,,,,,,,,,,,,,,",
",,,,,,,,,,,,,,,,,,,,,",
",,,,,,,,,,,,,,,,,,,,,",
",,,,,,,,,,,,,,,,,,,,,",
",,,,,,,,,,,,,,,,,,,,,",
",,,,,,,,,,,,,,,,,,,,,",
",,,,,,,,,,,,,,,,,,,,,",
"....................."};
