/* XPM */
static char * maxpr_xpm[] = {
"15 15 5 1",
" 	c #FFFFFF",
".	c #E3DFD5",
"+	c #000000",
"@	c #CAC6BC",
"#	c #A5A299",
"               ",
"...............",
"...............",
"...............",
"...............",
".....+++++.....",
".....+...+.....",
"@@@@@+@@@+@@@@@",
"@@@@@+@@@+@@@@@",
"@@@@@+++++@@@@@",
"@@@@@@@@@@@@@@@",
"@@@@@@@@@@@@@@@",
"@@@@@@@@@@@@@@@",
"@@@@@@@@@@@@@@@",
"###############"};
