/* XPM */
static char * select_xpm[] = {
"19 19 3 1",
" 	c None",
".	c #858585",
"+	c #FFFFFF",
"                   ",
"                   ",
"                   ",
"                   ",
"                   ",
"                   ",
"                   ",
"          ......   ",
"          .    .   ",
"          . ++ .   ",
"          . ++ .   ",
"          .    .   ",
"          ......   ",
"                   ",
"                   ",
"                   ",
"                   ",
"                   ",
"                   "};
