/* XPM */
static char * window_other_unfocused_xpm[] = {
"18 18 55 1",
" 	g None",
".	g #A1A1A1",
"+	g #767676",
"@	g #707070",
"#	g #696969",
"$	g #444444",
"%	g #282828",
"&	g #191919",
"*	g #686868",
"=	g #4D4D4D",
"-	g #202020",
";	g #313131",
">	g #3D3D3D",
",	g #3C3C3C",
"'	g #1F1F1F",
")	g #606060",
"!	g #474747",
"~	g #232323",
"{	g #3A3A3A",
"]	g #333333",
"^	g #2D2D2D",
"/	g #3B3B3B",
"(	g #484848",
"_	g #585858",
":	g #535353",
"<	g #1D1D1D",
"[	g #383838",
"}	g #363636",
"|	g #2B2B2B",
"1	g #2C2C2C",
"2	g #393939",
"3	g #373737",
"4	g #121212",
"5	g #171717",
"6	g #343434",
"7	g #2E2E2E",
"8	g #2F2F2F",
"9	g #323232",
"0	g #000000",
"a	g #141414",
"b	g #303030",
"c	g #131313",
"d	g #0F0F0F",
"e	g #212121",
"f	g #353535",
"g	g #101010",
"h	g #040404",
"i	g #272727",
"j	g #161616",
"k	g #0B0B0B",
"l	g #181818",
"m	g #252525",
"n	g #1C1C1C",
"o	g #0E0E0E",
"p	g #0D0D0D",
"..................",
"++++++++++++++++++",
"@@@@@#$%&&%$*@@@@@",
"****=-;>,>>;'=****",
")))!~{{]^^]{/~()))",
"__:<[}|1||1|}[<:__",
"__2^3111111113^2__",
"4456]77^7778796544",
"00a}bbbbbbbbb;}a00",
"00a69;;;;;;;;96a00",
"00c|666666666]1c00",
"00de;ffff6fff;eg00",
"00hai;3}}3}3]ijh00",
"000klm86}}68mlk000",
"0000kan~ii~nck0000",
"00000hoooddph00000",
"aaaaaaaaaaaaaaaaaa",
"111111111111111111"};
