/* XPM */
static char * selected_xpm[] = {
"16 16 4 1",
" 	c None",
".	c #78796E",
"+	c #ACAD9E",
"@	c #838479",
"                ",
"                ",
"                ",
"                ",
"                ",
"                ",
"      .+ +.     ",
"      +.+.+     ",
"       +@+      ",
"      +.+.+     ",
"      .+ +.     ",
"                ",
"                ",
"                ",
"                ",
"                "};
