/* XPM */
static char * stick_xpm[] = {
"16 16 11 1",
" 	c None",
".	c #303130",
"+	c #000000",
"@	c #4E4F4E",
"#	c #777877",
"$	c #B9BAB9",
"%	c #FCFCFC",
"&	c #262626",
"*	c #AAAAAA",
"=	c #FBFBFB",
"-	c #585858",
"................",
".++++++++++++++.",
".+@@@@@@@@@@@@+.",
".+@@@@@@@@@@@@+.",
".+@@@@@@@@@@@@+.",
".+@@@@@@@@@@@@+.",
".+@@@@#$$#@@@@+.",
".+@@@@$%%$@@@@+.",
"++&&&&*==*&&&&++",
"++&&&&-**-&&&&++",
"++&&&&&&&&&&&&++",
"++&&&&&&&&&&&&++",
"++&&&&&&&&&&&&++",
"++&&&&&&&&&&&&++",
"++++++++++++++++",
"++++++++++++++++"};
